<svg width="50" height="50" viewBox="0 0 50 50" fill="none" xmlns="http://www.w3.org/2000/svg">
<path d="M13.6589 35.2419C13.8404 35.3025 14.0083 35.3982 14.1529 35.5237C14.2974 35.6491 14.4158 35.8019 14.5013 35.9731C14.5868 36.1444 14.6377 36.3308 14.6511 36.5217C14.6645 36.7127 14.6401 36.9044 14.5794 37.0859L13.1229 41.4554C13.068 41.6434 12.9758 41.8185 12.8517 41.9701C12.7276 42.1217 12.5742 42.2467 12.4006 42.3377C12.2271 42.4286 12.037 42.4836 11.8417 42.4993C11.6464 42.5151 11.4499 42.4913 11.2641 42.4293C11.0782 42.3673 10.9067 42.2685 10.7599 42.1388C10.6132 42.009 10.4941 41.8509 10.4098 41.6741C10.3255 41.4972 10.2778 41.3051 10.2695 41.1094C10.2611 40.9137 10.2924 40.7182 10.3614 40.5349L11.8179 36.1654C11.9396 35.7988 12.2019 35.4956 12.5471 35.3224C12.8924 35.1492 13.2923 35.1203 13.6589 35.2419ZM22.3979 35.2419C22.5794 35.3025 22.7473 35.3982 22.8918 35.5237C23.0364 35.6491 23.1548 35.8019 23.2403 35.9731C23.3258 36.1444 23.3767 36.3308 23.3901 36.5217C23.4035 36.7127 23.3791 36.9044 23.3184 37.0859L20.4054 45.8249C20.3505 46.0129 20.2583 46.188 20.1342 46.3396C20.0101 46.4912 19.8566 46.6162 19.6831 46.7072C19.5096 46.7981 19.3194 46.8531 19.1242 46.8688C18.9289 46.8846 18.7324 46.8607 18.5465 46.7988C18.3607 46.7368 18.1892 46.638 18.0424 46.5082C17.8956 46.3785 17.7765 46.2204 17.6923 46.0436C17.608 45.8667 17.5603 45.6746 17.5519 45.4789C17.5436 45.2831 17.5749 45.0877 17.6438 44.9043L20.5568 36.1654C20.6786 35.7988 20.9409 35.4956 21.2861 35.3224C21.6314 35.1492 22.0313 35.1203 22.3979 35.2419ZM31.1368 35.2419C31.3184 35.3025 31.4863 35.3982 31.6308 35.5237C31.7754 35.6491 31.8938 35.8019 31.9793 35.9731C32.0648 36.1444 32.1157 36.3308 32.1291 36.5217C32.1425 36.7127 32.1181 36.9044 32.0574 37.0859L30.6009 41.4554C30.546 41.6434 30.4538 41.8185 30.3296 41.9701C30.2055 42.1217 30.0521 42.2467 29.8786 42.3377C29.705 42.4286 29.5149 42.4836 29.3196 42.4993C29.1244 42.5151 28.9279 42.4913 28.742 42.4293C28.5562 42.3673 28.3847 42.2685 28.2379 42.1388C28.0911 42.009 27.972 41.8509 27.8878 41.6741C27.8035 41.4972 27.7558 41.3051 27.7474 41.1094C27.7391 40.9137 27.7704 40.7182 27.8393 40.5349L29.2958 36.1654C29.4175 35.7988 29.6799 35.4956 30.0251 35.3224C30.3704 35.1492 30.7703 35.1203 31.1368 35.2419ZM39.8758 35.2419C40.0574 35.3025 40.2253 35.3982 40.3698 35.5237C40.5144 35.6491 40.6328 35.8019 40.7183 35.9731C40.8038 36.1444 40.8547 36.3308 40.8681 36.5217C40.8815 36.7127 40.8571 36.9044 40.7963 37.0859L37.8833 45.8249C37.8285 46.0129 37.7362 46.188 37.6121 46.3396C37.488 46.4912 37.3346 46.6162 37.1611 46.7072C36.9875 46.7981 36.7974 46.8531 36.6021 46.8688C36.4068 46.8846 36.2104 46.8607 36.0245 46.7988C35.8387 46.7368 35.6672 46.638 35.5204 46.5082C35.3736 46.3785 35.2545 46.2204 35.1702 46.0436C35.086 45.8667 35.0382 45.6746 35.0299 45.4789C35.0216 45.2831 35.0529 45.0877 35.1218 44.9043L38.0348 36.1654C38.1565 35.7988 38.4189 35.4956 38.7641 35.3224C39.1094 35.1492 39.5092 35.1203 39.8758 35.2419ZM40.5953 14.8568C39.9904 11.8074 38.4258 9.03141 36.1303 6.93484C33.8348 4.83826 30.9288 3.53102 27.8371 3.20425C24.7455 2.87748 21.6304 3.54831 18.9473 5.11867C16.2642 6.68903 14.1539 9.07655 12.9248 11.9321C11.5465 11.7734 10.1502 11.8976 8.8216 12.2972C7.49295 12.6968 6.25984 13.3633 5.19777 14.2561C4.1357 15.1488 3.26701 16.2489 2.64489 17.4891C2.02277 18.7292 1.66032 20.0833 1.57972 21.4684C1.49912 22.8535 1.70207 24.2404 2.17614 25.5443C2.65022 26.8483 3.38544 28.0417 4.3368 29.0516C5.28815 30.0615 6.43563 30.8666 7.70896 31.4176C8.98229 31.9686 10.3547 32.254 11.7421 32.2561H39.4156C41.6327 32.2587 43.7679 31.4184 45.3886 29.9055C47.0094 28.3927 47.9946 26.3204 48.1445 24.1083C48.2945 21.8963 47.5981 19.7099 46.1964 17.9922C44.7947 16.2744 42.7925 15.1536 40.5953 14.8568Z" fill="url(#paint0_linear_158_12306)"/>
<path d="M13.6589 35.2411C13.8405 35.3017 14.0084 35.3974 14.1529 35.5229C14.2975 35.6483 14.4159 35.801 14.5014 35.9723C14.5868 36.1435 14.6377 36.33 14.6511 36.5209C14.6645 36.7118 14.6402 36.9035 14.5794 37.085L13.1229 41.4545C13.0681 41.6426 12.9758 41.8177 12.8517 41.9693C12.7276 42.1209 12.5742 42.2459 12.4007 42.3369C12.2271 42.4278 12.037 42.4828 11.8417 42.4985C11.6464 42.5142 11.45 42.4904 11.2641 42.4285C11.0782 42.3665 10.9068 42.2677 10.76 42.1379C10.6132 42.0082 10.4941 41.8501 10.4098 41.6732C10.3256 41.4964 10.2778 41.3043 10.2695 41.1086C10.2612 40.9128 10.2924 40.7174 10.3614 40.534L11.8179 36.1645C11.9396 35.798 12.2019 35.4948 12.5472 35.3216C12.8924 35.1484 13.2923 35.1195 13.6589 35.2411ZM22.3979 35.2411C22.5795 35.3017 22.7473 35.3974 22.8919 35.5229C23.0364 35.6483 23.1549 35.801 23.2403 35.9723C23.3258 36.1435 23.3767 36.33 23.3901 36.5209C23.4035 36.7118 23.3792 36.9035 23.3184 37.085L20.4054 45.824C20.3506 46.0121 20.2583 46.1872 20.1342 46.3388C20.0101 46.4904 19.8567 46.6154 19.6831 46.7063C19.5096 46.7973 19.3195 46.8523 19.1242 46.868C18.9289 46.8837 18.7325 46.8599 18.5466 46.798C18.3607 46.736 18.1893 46.6372 18.0425 46.5074C17.8957 46.3777 17.7766 46.2196 17.6923 46.0427C17.608 45.8659 17.5603 45.6738 17.552 45.4781C17.5437 45.2823 17.5749 45.0869 17.6439 44.9035L20.5569 36.1645C20.6786 35.798 20.9409 35.4948 21.2862 35.3216C21.6314 35.1484 22.0313 35.1195 22.3979 35.2411ZM31.1369 35.2411C31.3185 35.3017 31.4863 35.3974 31.6309 35.5229C31.7754 35.6483 31.8938 35.801 31.9793 35.9723C32.0648 36.1435 32.1157 36.33 32.1291 36.5209C32.1425 36.7118 32.1181 36.9035 32.0574 37.085L30.6009 41.4545C30.546 41.6426 30.4538 41.8177 30.3297 41.9693C30.2056 42.1209 30.0522 42.2459 29.8786 42.3369C29.7051 42.4278 29.515 42.4828 29.3197 42.4985C29.1244 42.5142 28.9279 42.4904 28.7421 42.4285C28.5562 42.3665 28.3848 42.2677 28.238 42.1379C28.0912 42.0082 27.9721 41.8501 27.8878 41.6732C27.8035 41.4964 27.7558 41.3043 27.7475 41.1086C27.7392 40.9128 27.7704 40.7174 27.8394 40.534L29.2959 36.1645C29.4176 35.798 29.6799 35.4948 30.0252 35.3216C30.3704 35.1484 30.7703 35.1195 31.1369 35.2411ZM39.8759 35.2411C40.0575 35.3017 40.2253 35.3974 40.3699 35.5229C40.5144 35.6483 40.6328 35.801 40.7183 35.9723C40.8038 36.1435 40.8547 36.33 40.8681 36.5209C40.8815 36.7118 40.8571 36.9035 40.7964 37.085L37.8834 45.824C37.8285 46.0121 37.7363 46.1872 37.6122 46.3388C37.4881 46.4904 37.3347 46.6154 37.1611 46.7063C36.9876 46.7973 36.7975 46.8523 36.6022 46.868C36.4069 46.8837 36.2104 46.8599 36.0246 46.798C35.8387 46.736 35.6672 46.6372 35.5205 46.5074C35.3737 46.3777 35.2546 46.2196 35.1703 46.0427C35.086 45.8659 35.0383 45.6738 35.03 45.4781C35.0216 45.2823 35.0529 45.0869 35.1219 44.9035L38.0349 36.1645C38.1566 35.798 38.4189 35.4948 38.7641 35.3216C39.1094 35.1484 39.5093 35.1195 39.8759 35.2411Z" fill="url(#paint1_linear_158_12306)"/>
<defs>
<linearGradient id="paint0_linear_158_12306" x1="1.5625" y1="24.9985" x2="48.1646" y2="24.9985" gradientUnits="userSpaceOnUse">
<stop stop-color="#1E3C72"/>
<stop offset="0.01" stop-color="#1E3C72"/>
<stop offset="1" stop-color="#2A5298"/>
</linearGradient>
<linearGradient id="paint1_linear_158_12306" x1="10.2682" y1="41.0199" x2="40.8717" y2="41.0199" gradientUnits="userSpaceOnUse">
<stop stop-color="#1E3C72"/>
<stop offset="0.01" stop-color="#1E3C72"/>
<stop offset="1" stop-color="#2A5298"/>
</linearGradient>
</defs>
</svg>
