<svg width="50" height="50" viewBox="0 0 50 50" fill="none" xmlns="http://www.w3.org/2000/svg">
<path d="M43.625 22.9166C42.6666 14.2291 35.7708 7.33325 27.0833 6.37492V2.08325H22.9166V6.37492C14.2291 7.33325 7.33331 14.2291 6.37498 22.9166H2.08331V27.0832H6.37498C7.33331 35.7707 14.2291 42.6666 22.9166 43.6249V47.9166H27.0833V43.6249C35.7708 42.6666 42.6666 35.7707 43.625 27.0832H47.9166V22.9166H43.625ZM25 39.5832C16.9375 39.5832 10.4166 33.0624 10.4166 24.9999C10.4166 16.9374 16.9375 10.4166 25 10.4166C33.0625 10.4166 39.5833 16.9374 39.5833 24.9999C39.5833 33.0624 33.0625 39.5832 25 39.5832Z" fill="url(#paint0_linear_158_12295)"/>
<path d="M25 16.6666C20.3959 16.6666 16.6667 20.3958 16.6667 25C16.6667 29.6041 20.3959 33.3333 25 33.3333C29.6042 33.3333 33.3334 29.6041 33.3334 25C33.3334 20.3958 29.6042 16.6666 25 16.6666Z" fill="url(#paint1_linear_158_12295)"/>
<defs>
<linearGradient id="paint0_linear_158_12295" x1="2.08331" y1="24.9999" x2="47.9166" y2="24.9999" gradientUnits="userSpaceOnUse">
<stop stop-color="#1E3C72"/>
<stop offset="0.01" stop-color="#1E3C72"/>
<stop offset="1" stop-color="#2A5298"/>
</linearGradient>
<linearGradient id="paint1_linear_158_12295" x1="16.6667" y1="25" x2="33.3334" y2="25" gradientUnits="userSpaceOnUse">
<stop stop-color="#1E3C72"/>
<stop offset="0.01" stop-color="#1E3C72"/>
<stop offset="1" stop-color="#2A5298"/>
</linearGradient>
</defs>
</svg>
