<svg width="50" height="50" viewBox="0 0 50 50" fill="none" xmlns="http://www.w3.org/2000/svg">
<path d="M25 7.29169C20.856 7.29169 16.8817 8.93789 13.9515 11.8681C11.0212 14.7984 9.375 18.7727 9.375 22.9167V23.4375C9.375 23.8519 9.21038 24.2493 8.91735 24.5424C8.62433 24.8354 8.2269 25 7.8125 25C7.3981 25 7.00067 24.8354 6.70765 24.5424C6.41462 24.2493 6.25 23.8519 6.25 23.4375V22.9167C6.25 17.9439 8.22544 13.1747 11.7417 9.65844C15.2581 6.14213 20.0272 4.16669 25 4.16669C29.9728 4.16669 34.7419 6.14213 38.2583 9.65844C41.7746 13.1747 43.75 17.9439 43.75 22.9167V23.4375C43.75 23.8519 43.5854 24.2493 43.2924 24.5424C42.9993 24.8354 42.6019 25 42.1875 25C41.7731 25 41.3757 24.8354 41.0826 24.5424C40.7896 24.2493 40.625 23.8519 40.625 23.4375V22.9167C40.625 18.7727 38.9788 14.7984 36.0485 11.8681C33.1183 8.93789 29.144 7.29169 25 7.29169Z" fill="url(#paint0_linear_1370_46401)"/>
<path d="M25 13.5417C22.5136 13.5417 20.129 14.5294 18.3709 16.2876C16.6127 18.0457 15.625 20.4303 15.625 22.9167V23.4375C15.625 23.8519 15.4604 24.2493 15.1674 24.5424C14.8743 24.8354 14.4769 25 14.0625 25C13.6481 25 13.2507 24.8354 12.9576 24.5424C12.6646 24.2493 12.5 23.8519 12.5 23.4375V22.9167C12.5 19.6015 13.817 16.4221 16.1612 14.0779C18.5054 11.7336 21.6848 10.4167 25 10.4167C28.3152 10.4167 31.4946 11.7336 33.8388 14.0779C36.183 16.4221 37.5 19.6015 37.5 22.9167V23.4375C37.5 23.8519 37.3354 24.2493 37.0424 24.5424C36.7493 24.8354 36.3519 25 35.9375 25C35.5231 25 35.1257 24.8354 34.8326 24.5424C34.5396 24.2493 34.375 23.8519 34.375 23.4375V22.9167C34.375 20.4303 33.3873 18.0457 31.6291 16.2876C29.871 14.5294 27.4864 13.5417 25 13.5417Z" fill="url(#paint1_linear_1370_46401)"/>
<path d="M18.75 22.9166C18.7501 21.7477 19.078 20.6022 19.6965 19.6103C20.315 18.6184 21.1993 17.8198 22.2488 17.3053C23.2984 16.7907 24.4713 16.5808 25.6342 16.6994C26.7971 16.8181 27.9034 17.2604 28.8275 17.9763C29.7516 18.6922 30.4565 19.6528 30.8619 20.7492C31.2674 21.8455 31.3573 23.0336 31.1214 24.1785C30.8855 25.3234 30.3332 26.3792 29.5274 27.2259C28.7215 28.0727 27.6943 28.6765 26.5625 28.9687V33.3333H37.5C39.1576 33.3333 40.7473 33.9918 41.9194 35.1639C43.0915 36.336 43.75 37.9257 43.75 39.5833C43.75 41.2409 43.0915 42.8306 41.9194 44.0027C40.7473 45.1748 39.1576 45.8333 37.5 45.8333H12.5C10.8424 45.8333 9.25269 45.1748 8.08058 44.0027C6.90848 42.8306 6.25 41.2409 6.25 39.5833C6.25 37.9257 6.90848 36.336 8.08058 35.1639C9.25269 33.9918 10.8424 33.3333 12.5 33.3333H23.4375V28.9687C22.096 28.622 20.9077 27.8394 20.0592 26.744C19.2108 25.6485 18.7502 24.3022 18.75 22.9166Z" fill="url(#paint2_linear_1370_46401)"/>
<defs>
<linearGradient id="paint0_linear_1370_46401" x1="6.25" y1="14.5834" x2="43.75" y2="14.5834" gradientUnits="userSpaceOnUse">
<stop stop-color="#1E3C72"/>
<stop offset="0.01" stop-color="#1E3C72"/>
<stop offset="1" stop-color="#2A5298"/>
</linearGradient>
<linearGradient id="paint1_linear_1370_46401" x1="12.5" y1="17.7084" x2="37.5" y2="17.7084" gradientUnits="userSpaceOnUse">
<stop stop-color="#1E3C72"/>
<stop offset="0.01" stop-color="#1E3C72"/>
<stop offset="1" stop-color="#2A5298"/>
</linearGradient>
<linearGradient id="paint2_linear_1370_46401" x1="6.25" y1="31.2502" x2="43.75" y2="31.2502" gradientUnits="userSpaceOnUse">
<stop stop-color="#1E3C72"/>
<stop offset="0.01" stop-color="#1E3C72"/>
<stop offset="1" stop-color="#2A5298"/>
</linearGradient>
</defs>
</svg>
