<svg width="50" height="50" viewBox="0 0 50 50" fill="none" xmlns="http://www.w3.org/2000/svg">
<path d="M25.8906 5.8711C25.7806 5.74262 25.6441 5.63948 25.4904 5.56876C25.3368 5.49804 25.1696 5.46143 25.0005 5.46143C24.8313 5.46143 24.6642 5.49804 24.5105 5.56876C24.3569 5.63948 24.2204 5.74262 24.1104 5.8711C21.0186 9.48731 10.9375 21.9893 10.9375 31.25C10.9375 39.8799 16.3711 45.3125 25 45.3125C33.6289 45.3125 39.0625 39.8799 39.0625 31.25C39.0625 21.9893 28.9814 9.48731 25.8906 5.8711ZM26.5625 40.2344C26.3748 40.2348 26.1898 40.1901 26.0229 40.1041C25.8561 40.0181 25.7124 39.8933 25.6038 39.7401C25.4953 39.587 25.4251 39.41 25.3993 39.2241C25.3734 39.0382 25.3925 38.8488 25.4551 38.6719C25.535 38.441 25.6857 38.2412 25.8858 38.1009C26.0858 37.9606 26.325 37.8871 26.5693 37.8906C28.1205 37.8873 29.6072 37.2696 30.704 36.1728C31.8008 35.0759 32.4185 33.5893 32.4219 32.0381C32.4183 31.7938 32.4919 31.5546 32.6322 31.3545C32.7724 31.1545 32.9722 31.0037 33.2031 30.9238C33.3801 30.8613 33.5695 30.8421 33.7554 30.868C33.9413 30.8939 34.1182 30.9641 34.2714 31.0726C34.4245 31.1811 34.5493 31.3249 34.6353 31.4917C34.7214 31.6585 34.766 31.8436 34.7656 32.0313C34.7633 34.2061 33.8983 36.2913 32.3604 37.8292C30.8225 39.3671 28.7374 40.2321 26.5625 40.2344Z" fill="url(#paint0_linear_890_46134)"/>
<defs>
<linearGradient id="paint0_linear_890_46134" x1="10.9375" y1="25.387" x2="39.0625" y2="25.387" gradientUnits="userSpaceOnUse">
<stop stop-color="#1E3C72"/>
<stop offset="0.01" stop-color="#1E3C72"/>
<stop offset="1" stop-color="#2A5298"/>
</linearGradient>
</defs>
</svg>
