<svg width="50" height="50" viewBox="0 0 50 50" fill="none" xmlns="http://www.w3.org/2000/svg">
<path fill-rule="evenodd" clip-rule="evenodd" d="M5.07812 12.5651H4.54102C2.37305 12.5651 0.537109 14.0104 0.107422 16.0612C0.0292969 16.4225 0 20.5339 0 30.1042C0 43.4636 0 43.6296 0.195312 44.0104C0.322266 44.2643 0.527344 44.4694 0.78125 44.5964C1.16211 44.7917 1.29883 44.7917 25 44.7917C48.7012 44.7917 48.8379 44.7917 49.2188 44.5964C49.4727 44.4694 49.6777 44.2643 49.8047 44.0104C50 43.6393 50 43.4538 50 36.3249V29.0202L49.7754 28.6393C49.5801 28.2975 48.9941 27.9265 43.5059 24.7624C39.8535 22.6432 37.4609 21.2077 37.4805 21.1393L34.8535 19.7624L31.084 17.5944C29.0234 16.403 27.3242 15.3972 27.3145 15.3483L24.6973 13.9128L23.9453 13.4733C22.7637 12.7702 22.2949 12.6335 20.9277 12.5847L19.7266 12.5456L16.7969 12.5651H12.4023H8.00781H5.07812ZM5.85938 16.9694C5.85938 16.4714 5.51758 15.9147 5.07812 15.6901C4.59961 15.446 4.16016 15.446 3.69141 15.6999C3.27148 15.9147 2.92969 16.4909 2.92969 16.9597C2.92969 17.7018 3.65234 18.4245 4.39453 18.4245C5.11719 18.4245 5.85938 17.6823 5.85938 16.9694ZM47.0508 30.1921C46.9434 30.114 22.207 15.8561 21.8945 15.6999C21.4941 15.4948 21.4062 15.4948 15.0391 15.4948H8.57422L8.66211 15.905C8.75977 16.4421 8.75977 17.4772 8.66211 18.0046L8.57422 18.4245H14.6484C20.6543 18.4245 20.7129 18.4245 21.123 18.6296C21.3477 18.7468 25.3809 21.0612 30.0781 23.7761C34.7754 26.4909 40.5176 29.8015 42.8223 31.1296L47.0215 33.5612L47.0508 31.8815C47.0605 30.9636 47.0605 30.2018 47.0508 30.1921ZM18.9453 21.364L11.2109 21.3249C6.95313 21.3054 3.34961 21.2565 3.20312 21.2175L2.92969 21.1393V31.5007V41.862H10.9375H18.9453V31.6081V21.364ZM47.0215 36.9499L34.6191 29.7819C31.0418 27.7114 27.7819 25.8291 25.4788 24.4993L25.4756 24.4975L25.4733 24.4961C23.3911 23.2939 22.0925 22.5441 22.0508 22.5163C21.8848 22.4284 21.875 22.9167 21.875 32.1452V41.862H34.4727H47.0703L47.0508 39.4011L47.0215 36.9499Z" fill="url(#paint0_linear_158_12309)"/>
<path d="M11.2109 21.3249L18.9453 21.364V31.6081V41.862H10.9375H2.92969V31.5007V21.1393L3.20312 21.2175C3.34961 21.2565 6.95313 21.3054 11.2109 21.3249Z" fill="url(#paint1_linear_158_12309)"/>
<path d="M34.6191 29.7819L47.0215 36.9499L47.0508 39.4011L47.0703 41.862H34.4727H21.875V32.1452C21.875 22.9167 21.8848 22.4284 22.0508 22.5163C22.0925 22.5441 23.3911 23.2939 25.4733 24.4961L25.4756 24.4975L25.4788 24.4993C27.7819 25.8291 31.0418 27.7114 34.6191 29.7819Z" fill="url(#paint2_linear_158_12309)"/>
<ellipse cx="41.6667" cy="17.7084" rx="4.16667" ry="4.16667" fill="url(#paint3_linear_158_12309)"/>
<ellipse cx="34.375" cy="11.4584" rx="3.125" ry="3.125" fill="url(#paint4_linear_158_12309)"/>
<ellipse cx="41.6666" cy="10.4167" rx="2.08333" ry="2.08333" fill="url(#paint5_linear_158_12309)"/>
<ellipse cx="47.9166" cy="23.9584" rx="2.08333" ry="2.08333" fill="url(#paint6_linear_158_12309)"/>
<ellipse rx="1.04167" ry="1.04167" transform="matrix(1 0 0 -1 32.2917 16.6667)" fill="url(#paint7_linear_158_12309)"/>
<ellipse rx="1.04167" ry="1.04167" transform="matrix(1 0 0 -1 36.4584 6.25002)" fill="url(#paint8_linear_158_12309)"/>
<ellipse rx="1.04166" ry="1.04167" transform="matrix(1 0 0 -1 46.875 12.5)" fill="url(#paint9_linear_158_12309)"/>
<ellipse rx="2.08333" ry="2.08333" transform="matrix(1 0 0 -1 27.0833 11.4584)" fill="url(#paint10_linear_158_12309)"/>
<circle r="1.04167" transform="matrix(1 0 0 -1 48.9584 18.75)" fill="url(#paint11_linear_158_12309)"/>
<defs>
<linearGradient id="paint0_linear_158_12309" x1="0" y1="28.6686" x2="50" y2="28.6686" gradientUnits="userSpaceOnUse">
<stop stop-color="#1E3C72"/>
<stop offset="0.01" stop-color="#1E3C72"/>
<stop offset="1" stop-color="#2A5298"/>
</linearGradient>
<linearGradient id="paint1_linear_158_12309" x1="0" y1="28.6686" x2="50" y2="28.6686" gradientUnits="userSpaceOnUse">
<stop stop-color="#1E3C72"/>
<stop offset="0.01" stop-color="#1E3C72"/>
<stop offset="1" stop-color="#2A5298"/>
</linearGradient>
<linearGradient id="paint2_linear_158_12309" x1="0" y1="28.6686" x2="50" y2="28.6686" gradientUnits="userSpaceOnUse">
<stop stop-color="#1E3C72"/>
<stop offset="0.01" stop-color="#1E3C72"/>
<stop offset="1" stop-color="#2A5298"/>
</linearGradient>
<linearGradient id="paint3_linear_158_12309" x1="37.5" y1="17.7084" x2="45.8333" y2="17.7084" gradientUnits="userSpaceOnUse">
<stop stop-color="#1E3C72"/>
<stop offset="0.01" stop-color="#1E3C72"/>
<stop offset="1" stop-color="#2A5298"/>
</linearGradient>
<linearGradient id="paint4_linear_158_12309" x1="31.25" y1="11.4584" x2="37.5" y2="11.4584" gradientUnits="userSpaceOnUse">
<stop stop-color="#1E3C72"/>
<stop offset="0.01" stop-color="#1E3C72"/>
<stop offset="1" stop-color="#2A5298"/>
</linearGradient>
<linearGradient id="paint5_linear_158_12309" x1="39.5833" y1="10.4167" x2="43.75" y2="10.4167" gradientUnits="userSpaceOnUse">
<stop stop-color="#1E3C72"/>
<stop offset="0.01" stop-color="#1E3C72"/>
<stop offset="1" stop-color="#2A5298"/>
</linearGradient>
<linearGradient id="paint6_linear_158_12309" x1="45.8333" y1="23.9584" x2="50" y2="23.9584" gradientUnits="userSpaceOnUse">
<stop stop-color="#1E3C72"/>
<stop offset="0.01" stop-color="#1E3C72"/>
<stop offset="1" stop-color="#2A5298"/>
</linearGradient>
<linearGradient id="paint7_linear_158_12309" x1="0" y1="1.04167" x2="2.08334" y2="1.04167" gradientUnits="userSpaceOnUse">
<stop stop-color="#1E3C72"/>
<stop offset="0.01" stop-color="#1E3C72"/>
<stop offset="1" stop-color="#2A5298"/>
</linearGradient>
<linearGradient id="paint8_linear_158_12309" x1="0" y1="1.04167" x2="2.08334" y2="1.04167" gradientUnits="userSpaceOnUse">
<stop stop-color="#1E3C72"/>
<stop offset="0.01" stop-color="#1E3C72"/>
<stop offset="1" stop-color="#2A5298"/>
</linearGradient>
<linearGradient id="paint9_linear_158_12309" x1="0" y1="1.04167" x2="2.08333" y2="1.04167" gradientUnits="userSpaceOnUse">
<stop stop-color="#1E3C72"/>
<stop offset="0.01" stop-color="#1E3C72"/>
<stop offset="1" stop-color="#2A5298"/>
</linearGradient>
<linearGradient id="paint10_linear_158_12309" x1="0" y1="2.08333" x2="4.16667" y2="2.08333" gradientUnits="userSpaceOnUse">
<stop stop-color="#1E3C72"/>
<stop offset="0.01" stop-color="#1E3C72"/>
<stop offset="1" stop-color="#2A5298"/>
</linearGradient>
<linearGradient id="paint11_linear_158_12309" x1="0" y1="1.04167" x2="2.08334" y2="1.04167" gradientUnits="userSpaceOnUse">
<stop stop-color="#1E3C72"/>
<stop offset="0.01" stop-color="#1E3C72"/>
<stop offset="1" stop-color="#2A5298"/>
</linearGradient>
</defs>
</svg>
