<svg width="50" height="50" viewBox="0 0 50 50" fill="none" xmlns="http://www.w3.org/2000/svg">
<path d="M6.60746 15.8924C10.975 12.1424 14.425 9.17742 23.7875 14.4674C28.285 17.0074 31.9125 17.9674 34.93 17.9624C40.2175 17.9624 43.645 15.0224 46.6075 12.4799C47.116 12.0376 47.4322 11.4146 47.4891 10.743C47.5461 10.0714 47.3392 9.40407 46.9125 8.88242C46.7043 8.62644 46.4469 8.41481 46.1555 8.26005C45.8641 8.10528 45.5446 8.01053 45.216 7.9814C44.8873 7.95226 44.5562 7.98933 44.2421 8.09042C43.928 8.19151 43.6374 8.35455 43.3875 8.56992C39.0225 12.3249 35.57 15.2899 26.2075 9.99492C13.8375 3.01242 8.04246 7.98742 3.38746 11.9874C2.87934 12.4301 2.56358 13.0533 2.50711 13.7249C2.45064 14.3964 2.6579 15.0636 3.08496 15.5849C3.29326 15.8405 3.55072 16.0516 3.84208 16.2059C4.13344 16.3602 4.45278 16.4544 4.78122 16.4831C5.10966 16.5118 5.44051 16.4743 5.75419 16.3728C6.06788 16.2714 6.35802 16.108 6.60746 15.8924ZM43.3875 21.3374C39.0225 25.0874 35.57 28.0574 26.2075 22.7624C13.8375 15.7749 8.04246 20.7524 3.38746 24.7499C2.87934 25.1926 2.56358 25.8158 2.50711 26.4874C2.45064 27.1589 2.6579 27.8261 3.08496 28.3474C3.29291 28.6033 3.55008 28.8149 3.84126 28.9696C4.13244 29.1244 4.4517 29.2191 4.78015 29.2482C5.1086 29.2774 5.43956 29.2403 5.75343 29.1393C6.0673 29.0382 6.35771 28.8752 6.60746 28.6599C10.975 24.9074 14.425 21.9424 23.7875 27.2299C28.285 29.7749 31.9125 30.7299 34.93 30.7299C40.2175 30.7299 43.645 27.7899 46.6075 25.2424C47.1163 24.8008 47.4329 24.1782 47.4899 23.5068C47.5468 22.8355 47.3397 22.1684 46.9125 21.6474C46.7043 21.3913 46.4469 21.1796 46.1554 21.0249C45.8639 20.8702 45.5443 20.7755 45.2155 20.7466C44.8868 20.7177 44.5556 20.7551 44.2416 20.8566C43.9276 20.9581 43.6371 21.1216 43.3875 21.3374ZM43.3875 34.1024C39.0225 37.8574 35.57 40.8224 26.2075 35.5324C13.8375 28.5449 8.04246 33.5199 3.38746 37.5199C2.87934 37.9626 2.56358 38.5858 2.50711 39.2574C2.45064 39.9289 2.6579 40.5961 3.08496 41.1174C3.29306 41.3733 3.55043 41.5847 3.8418 41.7392C4.13316 41.8936 4.45259 41.988 4.78113 42.0167C5.10966 42.0454 5.44061 42.0078 5.75434 41.9061C6.06806 41.8045 6.35818 41.6408 6.60746 41.4249C10.975 37.6749 14.425 34.7124 23.7875 39.9999C28.285 42.5399 31.9125 43.4999 34.93 43.4999C40.2175 43.4999 43.645 40.5549 46.6075 38.0124C47.116 37.5701 47.4322 36.9471 47.4891 36.2755C47.5461 35.6039 47.3392 34.9366 46.9125 34.4149C46.7041 34.1592 46.4466 33.9479 46.1552 33.7933C45.8638 33.6387 45.5444 33.5441 45.2159 33.515C44.8873 33.4858 44.5563 33.5228 44.2422 33.6237C43.9282 33.7246 43.6376 33.8874 43.3875 34.1024Z" fill="url(#paint0_linear_890_46131)"/>
<path d="M43.3875 21.3384C39.0225 25.0884 35.57 28.0584 26.2075 22.7634C13.8375 15.7759 8.04246 20.7534 3.38746 24.7509C2.87934 25.1936 2.56358 25.8168 2.50711 26.4883C2.45064 27.1599 2.6579 27.827 3.08496 28.3484C3.29291 28.6043 3.55008 28.8159 3.84126 28.9706C4.13244 29.1253 4.4517 29.2201 4.78015 29.2492C5.1086 29.2783 5.43956 29.2413 5.75343 29.1402C6.0673 29.0392 6.35771 28.8762 6.60746 28.6609C10.975 24.9084 14.425 21.9434 23.7875 27.2309C28.285 29.7759 31.9125 30.7309 34.93 30.7309C40.2175 30.7309 43.645 27.7909 46.6075 25.2434C47.1163 24.8018 47.4329 24.1792 47.4899 23.5078C47.5468 22.8365 47.3397 22.1694 46.9125 21.6484C46.7043 21.3923 46.4469 21.1806 46.1554 21.0259C45.8639 20.8711 45.5443 20.7765 45.2155 20.7476C44.8868 20.7187 44.5556 20.7561 44.2416 20.8576C43.9276 20.959 43.6371 21.1225 43.3875 21.3384Z" fill="url(#paint1_linear_890_46131)"/>
<defs>
<linearGradient id="paint0_linear_890_46131" x1="2.49799" y1="24.9996" x2="47.4991" y2="24.9996" gradientUnits="userSpaceOnUse">
<stop stop-color="#1E3C72"/>
<stop offset="0.01" stop-color="#1E3C72"/>
<stop offset="1" stop-color="#2A5298"/>
</linearGradient>
<linearGradient id="paint1_linear_890_46131" x1="2.49799" y1="24.9978" x2="47.4991" y2="24.9978" gradientUnits="userSpaceOnUse">
<stop stop-color="#1E3C72"/>
<stop offset="0.01" stop-color="#1E3C72"/>
<stop offset="1" stop-color="#2A5298"/>
</linearGradient>
</defs>
</svg>
