<svg width="50" height="50" viewBox="0 0 50 50" fill="none" xmlns="http://www.w3.org/2000/svg">
<path d="M37.4701 43.75H12.5311C11.9495 43.7494 11.3794 43.5881 10.8837 43.2839C10.388 42.9797 9.98602 42.5445 9.72206 42.0263C9.45809 41.5081 9.34245 40.927 9.38788 40.3472C9.43332 39.7674 9.63806 39.2114 9.97952 38.7406L15.4264 31.25H34.5733L40.0217 38.7406C40.3632 39.2114 40.5679 39.7674 40.6133 40.3472C40.6588 40.927 40.5431 41.5081 40.2792 42.0263C40.0152 42.5445 39.6132 42.9797 39.1175 43.2839C38.6218 43.5881 38.0517 43.7494 37.4701 43.75Z" fill="url(#paint0_linear_158_12289)"/>
<path d="M42.5485 36.9031L31.25 21.3672V6.25H34.375V3.125H15.625V6.25H18.75V21.3672L7.45161 36.9031C6.7701 37.8398 6.361 38.9467 6.26958 40.1014C6.17817 41.2561 6.408 42.4136 6.93364 43.4458C7.45929 44.478 8.26025 45.3447 9.2479 45.9499C10.2356 46.5551 11.3714 46.8753 12.5297 46.875H37.4688C38.6271 46.8753 39.763 46.5551 40.7506 45.9499C41.7383 45.3447 42.5392 44.478 43.0649 43.4458C43.5905 42.4136 43.8204 41.2561 43.7289 40.1014C43.6375 38.9467 43.2284 37.8398 42.5469 36.9031H42.5485ZM21.875 22.3828V6.25H28.125V22.3828L32.3016 28.125H17.6985L21.875 22.3828ZM37.4704 43.75H12.5313C11.9497 43.7494 11.3796 43.5881 10.8839 43.2839C10.3882 42.9797 9.98623 42.5445 9.72226 42.0263C9.4583 41.5081 9.34266 40.927 9.38809 40.3472C9.43352 39.7674 9.63827 39.2114 9.97973 38.7406L15.4266 31.25H34.5735L40.0219 38.7406C40.3634 39.2114 40.5681 39.7674 40.6136 40.3472C40.659 40.927 40.5434 41.5081 40.2794 42.0263C40.0154 42.5445 39.6134 42.9797 39.1177 43.2839C38.622 43.5881 38.0519 43.7494 37.4704 43.75Z" fill="url(#paint1_linear_158_12289)"/>
<defs>
<linearGradient id="paint0_linear_158_12289" x1="9.37823" y1="37.5" x2="40.623" y2="37.5" gradientUnits="userSpaceOnUse">
<stop stop-color="#1E3C72"/>
<stop offset="0.01" stop-color="#1E3C72"/>
<stop offset="1" stop-color="#2A5298"/>
</linearGradient>
<linearGradient id="paint1_linear_158_12289" x1="6.25" y1="25" x2="43.7485" y2="25" gradientUnits="userSpaceOnUse">
<stop stop-color="#1E3C72"/>
<stop offset="0.01" stop-color="#1E3C72"/>
<stop offset="1" stop-color="#2A5298"/>
</linearGradient>
</defs>
</svg>
