<svg width="32" height="32" viewBox="0 0 32 32" fill="none" xmlns="http://www.w3.org/2000/svg">
<rect width="32" height="32" rx="16" fill="#0739A2" fill-opacity="0.7"/>
<path d="M20.8801 10.88C20.8801 9.53214 20.3336 8.31214 19.4513 7.42984C18.568 6.54656 17.348 6 16.0001 6C14.6523 6 13.4323 6.54656 12.549 7.42984C11.6667 8.31214 11.1201 9.53214 11.1201 10.88C11.1201 12.2279 11.6667 13.4479 12.549 14.3302C13.4323 15.2134 14.6523 15.76 16.0001 15.76C17.348 15.76 18.568 15.2134 19.4513 14.3302C19.905 13.8775 20.2647 13.3397 20.51 12.7477C20.7552 12.1556 20.881 11.5209 20.8801 10.88Z" fill="#E6EBF6"/>
<path d="M7 23.76C7 25.26 10.375 26.76 16 26.76C21.277 26.76 25 25.26 25 23.76C25 20.76 21.469 17.76 16 17.76C10.375 17.76 7 20.76 7 23.76Z" fill="#E6EBF6"/>
</svg>
