<svg width="22" height="27" viewBox="0 0 22 27" fill="none" xmlns="http://www.w3.org/2000/svg">
<path d="M22.001 8.5C22.0011 8.36616 21.9742 8.23367 21.922 8.11044C21.8698 7.98721 21.7932 7.87576 21.697 7.78275L14.7071 0.793C14.684 0.769917 14.6599 0.748 14.6346 0.72725C14.6284 0.72225 14.6219 0.717875 14.6155 0.713C14.5962 0.697568 14.5763 0.682849 14.5559 0.668875C14.5503 0.665125 14.5443 0.662 14.5386 0.65825C14.5169 0.644053 14.4946 0.630709 14.4718 0.61825C14.4676 0.616125 14.4631 0.614375 14.4589 0.612125C14.4342 0.599134 14.409 0.587207 14.3833 0.576375C14.3804 0.575125 14.3774 0.574375 14.3744 0.573125C14.3472 0.561982 14.3195 0.552056 14.2914 0.543375C14.2881 0.542375 14.2846 0.541875 14.2814 0.540875C14.2535 0.532563 14.2253 0.525473 14.1969 0.519625C14.1886 0.518 14.1803 0.51725 14.172 0.515875C14.1483 0.511625 14.1243 0.5075 14.0999 0.505C14.0667 0.501666 14.0334 0.499997 14 0.5H1.99901C1.46876 0.500596 0.960396 0.7115 0.585452 1.08644C0.210508 1.46139 -0.000396294 1.96975 -0.000991821 2.5V24.5C-0.000396294 25.0303 0.210508 25.5386 0.585452 25.9136C0.960396 26.2885 1.46876 26.4994 1.99901 26.5H20C20.5303 26.4994 21.0386 26.2885 21.4136 25.9136C21.7885 25.5386 21.9994 25.0303 22 24.5V8.52C22.0001 8.51325 22.001 8.50675 22.001 8.5ZM15 3.91425L18.5859 7.5H15V3.91425ZM20 24.5H1.99901V2.5H13V8.5C13 8.76522 13.1054 9.01957 13.2929 9.20711C13.4804 9.39464 13.7348 9.5 14 9.5H20L20.0013 24.5H20ZM15.2071 15.2929C15.3 15.3857 15.3737 15.496 15.4239 15.6173C15.4742 15.7386 15.5 15.8687 15.5 16C15.5 16.1313 15.4742 16.2614 15.4239 16.3827C15.3737 16.504 15.3 16.6143 15.2071 16.7071C15.1143 16.8 15.004 16.8736 14.8827 16.9239C14.7614 16.9742 14.6313 17 14.5 17C14.3687 17 14.2386 16.9742 14.1173 16.9239C13.996 16.8736 13.8857 16.8 13.7929 16.7071L12 14.9141V20.5C12 20.7652 11.8946 21.0196 11.7071 21.2071C11.5196 21.3946 11.2652 21.5 11 21.5C10.7348 21.5 10.4804 21.3946 10.2929 21.2071C10.1054 21.0196 10 20.7652 10 20.5V14.9141L8.20713 16.7071C8.01959 16.8947 7.76523 17 7.50001 17C7.23478 17 6.98042 16.8947 6.79288 16.7071C6.60534 16.5196 6.49998 16.2652 6.49998 16C6.49998 15.7348 6.60534 15.4804 6.79288 15.2929L10.2926 11.7933C10.316 11.7697 10.3406 11.7475 10.3664 11.7265C10.3771 11.7177 10.3884 11.7101 10.3994 11.7019C10.4144 11.6905 10.4294 11.6788 10.445 11.6683C10.4586 11.6593 10.4728 11.6514 10.4868 11.643C10.5006 11.6345 10.5144 11.6257 10.5289 11.618C10.5433 11.6104 10.5579 11.6039 10.5726 11.597C10.5875 11.5899 10.6023 11.5825 10.6176 11.5761C10.6318 11.5703 10.646 11.5656 10.6604 11.5605C10.6769 11.5545 10.6931 11.5481 10.71 11.543C10.7243 11.5388 10.7386 11.5356 10.7529 11.532C10.7703 11.5276 10.7873 11.5229 10.8049 11.5194C10.8211 11.5161 10.8376 11.5142 10.854 11.5119C10.8699 11.5095 10.8855 11.5065 10.9016 11.505C10.9306 11.5021 10.9598 11.5009 10.989 11.5005C10.9928 11.5005 10.9963 11.5 11 11.5C11.0038 11.5 11.0074 11.5005 11.011 11.5005C11.0403 11.5009 11.0694 11.5021 11.0984 11.505C11.1145 11.5065 11.1301 11.5095 11.146 11.5119C11.1624 11.5142 11.1789 11.5161 11.1951 11.5194C11.2126 11.5229 11.2298 11.5276 11.2471 11.532C11.2614 11.5357 11.2758 11.5388 11.29 11.543C11.3069 11.5481 11.3231 11.5545 11.3396 11.5605C11.354 11.5655 11.3684 11.5703 11.3824 11.5761C11.3978 11.5824 11.4125 11.5899 11.4274 11.597C11.4421 11.6039 11.4568 11.6104 11.4711 11.618C11.4856 11.6257 11.4994 11.6345 11.5133 11.643C11.5273 11.6514 11.5414 11.6593 11.555 11.6683C11.5708 11.6788 11.5856 11.6905 11.6006 11.7019C11.6116 11.7101 11.6229 11.7177 11.6336 11.7265C11.6593 11.7476 11.684 11.7697 11.7075 11.7933L15.2071 15.2929Z" fill="#0739A2" fill-opacity="0.7"/>
</svg>
