<svg width="16" height="10" viewBox="0 0 16 10" fill="none" xmlns="http://www.w3.org/2000/svg">
<path d="M0.491667 1.15C0.39466 1.24676 0.317696 1.36171 0.265183 1.48826C0.212669 1.61481 0.185638 1.75048 0.185638 1.8875C0.185638 2.02451 0.212669 2.16018 0.265183 2.28673C0.317696 2.41329 0.39466 2.52823 0.491667 2.625L7.41667 9.55C7.49376 9.62725 7.58533 9.68854 7.68615 9.73036C7.78696 9.77218 7.89503 9.7937 8.00417 9.7937C8.11331 9.7937 8.22137 9.77218 8.32219 9.73036C8.423 9.68854 8.51457 9.62725 8.59167 9.55L15.5167 2.625C15.925 2.21666 15.925 1.55833 15.5167 1.15C15.1083 0.741663 14.45 0.741663 14.0417 1.15L8 7.18333L1.95833 1.14166C1.55833 0.741665 0.891667 0.741663 0.491667 1.15Z" fill="white"/>
</svg>
