<svg width="14" height="8" viewBox="0 0 14 8" fill="none" xmlns="http://www.w3.org/2000/svg">
<path d="M0.993358 0.919997C0.915753 0.997407 0.854181 1.08937 0.81217 1.19061C0.77016 1.29185 0.748535 1.40039 0.748535 1.51C0.748535 1.61961 0.77016 1.72815 0.81217 1.82939C0.854181 1.93063 0.915753 2.02259 0.993358 2.1L6.53336 7.64C6.59503 7.7018 6.66829 7.75083 6.74894 7.78429C6.82959 7.81774 6.91605 7.83496 7.00336 7.83496C7.09067 7.83496 7.17712 7.81774 7.25777 7.78429C7.33842 7.75083 7.41168 7.7018 7.47336 7.64L13.0134 2.1C13.34 1.77333 13.34 1.24666 13.0134 0.919997C12.6867 0.593331 12.16 0.593331 11.8334 0.919997L7.00002 5.74666L2.16669 0.913332C1.84669 0.593332 1.31336 0.593331 0.993358 0.919997Z" fill="black"/>
</svg>
