<svg width="94" height="88" viewBox="0 0 94 88" fill="none" xmlns="http://www.w3.org/2000/svg">
<path d="M24.3177 64.4849C24.6809 64.6059 25.0166 64.7974 25.3057 65.0483C25.5948 65.2993 25.8316 65.6047 26.0026 65.9472C26.1736 66.2897 26.2754 66.6625 26.3022 67.0444C26.329 67.4263 26.2802 67.8097 26.1587 68.1727L23.2458 76.9117C23.136 77.2879 22.9516 77.638 22.7033 77.9412C22.4551 78.2445 22.1483 78.4945 21.8012 78.6763C21.4541 78.8582 21.0739 78.9681 20.6833 78.9996C20.2928 79.0311 19.8998 78.9835 19.5281 78.8596C19.1564 78.7357 18.8135 78.538 18.5199 78.2785C18.2263 78.0189 17.9881 77.7029 17.8196 77.3491C17.651 76.9954 17.5555 76.6113 17.5389 76.2198C17.5223 75.8283 17.5848 75.4375 17.7227 75.0707L20.6357 66.3317C20.8791 65.5986 21.4038 64.9921 22.0943 64.6458C22.7848 64.2995 23.5846 64.2416 24.3177 64.4849ZM41.7957 64.4849C42.1589 64.6059 42.4946 64.7974 42.7837 65.0483C43.0728 65.2993 43.3096 65.6047 43.4806 65.9472C43.6516 66.2897 43.7534 66.6625 43.7802 67.0444C43.8069 67.4263 43.7582 67.8097 43.6367 68.1727L37.8107 85.6507C37.701 86.0269 37.5165 86.377 37.2683 86.6802C37.0201 86.9834 36.7133 87.2335 36.3662 87.4153C36.0191 87.5972 35.6389 87.7071 35.2483 87.7386C34.8577 87.7701 34.4648 87.7225 34.0931 87.5986C33.7213 87.4746 33.3784 87.277 33.0849 87.0175C32.7913 86.7579 32.5531 86.4418 32.3845 86.0881C32.216 85.7344 32.1205 85.3503 32.1039 84.9588C32.0872 84.5673 32.1498 84.1764 32.2877 83.8097L38.1137 66.3317C38.3571 65.5986 38.8818 64.9921 39.5723 64.6458C40.2627 64.2995 41.0625 64.2416 41.7957 64.4849ZM59.2737 64.4849C59.6368 64.6059 59.9726 64.7974 60.2617 65.0483C60.5508 65.2993 60.7876 65.6047 60.9586 65.9472C61.1295 66.2897 61.2313 66.6625 61.2581 67.0444C61.2849 67.4263 61.2362 67.8097 61.1147 68.1727L58.2017 76.9117C58.092 77.2879 57.9075 77.638 57.6593 77.9412C57.4111 78.2445 57.1043 78.4945 56.7572 78.6763C56.4101 78.8582 56.0299 78.9681 55.6393 78.9996C55.2487 79.0311 54.8558 78.9835 54.4841 78.8596C54.1123 78.7357 53.7694 78.538 53.4758 78.2785C53.1823 78.0189 52.9441 77.7029 52.7755 77.3491C52.607 76.9954 52.5115 76.6113 52.4949 76.2198C52.4782 75.8283 52.5407 75.4375 52.6787 75.0707L55.5917 66.3317C55.8351 65.5986 56.3597 64.9921 57.0502 64.6458C57.7407 64.2995 58.5405 64.2416 59.2737 64.4849ZM76.7517 64.4849C77.1148 64.6059 77.4505 64.7974 77.7396 65.0483C78.0288 65.2993 78.2656 65.6047 78.4365 65.9472C78.6075 66.2897 78.7093 66.6625 78.7361 67.0444C78.7629 67.4263 78.7142 67.8097 78.5927 68.1727L72.7667 85.6507C72.657 86.0269 72.4725 86.377 72.2243 86.6802C71.9761 86.9834 71.6692 87.2335 71.3222 87.4153C70.9751 87.5972 70.5949 87.7071 70.2043 87.7386C69.8137 87.7701 69.4208 87.7225 69.049 87.5986C68.6773 87.4746 68.3344 87.277 68.0408 87.0175C67.7472 86.7579 67.5091 86.4418 67.3405 86.0881C67.1719 85.7344 67.0765 85.3503 67.0598 84.9588C67.0432 84.5673 67.1057 84.1764 67.2437 83.8097L73.0696 66.3317C73.3131 65.5986 73.8377 64.9921 74.5282 64.6458C75.2187 64.2995 76.0185 64.2416 76.7517 64.4849ZM78.1907 23.7146C76.9808 17.6157 73.8516 12.0638 69.2606 7.87065C64.6696 3.6775 58.8575 1.06302 52.6743 0.409473C46.491 -0.244071 40.2608 1.0976 34.8946 4.23832C29.5284 7.37904 25.3077 12.1541 22.8496 17.8653C20.0929 17.5477 17.3005 17.7961 14.6432 18.5953C11.9859 19.3945 9.51969 20.7276 7.39554 22.5131C5.27139 24.2986 3.53402 26.4988 2.28978 28.9791C1.04555 31.4594 0.320638 34.1675 0.159438 36.9377C-0.00176238 39.7079 0.404138 42.4818 1.35229 45.0897C2.30044 47.6975 3.77088 50.0844 5.67359 52.1042C7.57631 54.124 9.87125 55.7342 12.4179 56.8362C14.9646 57.9383 17.7094 58.5089 20.4842 58.5132H75.8312C80.2654 58.5183 84.5358 56.8378 87.7773 53.8121C91.0188 50.7864 92.9891 46.6417 93.2891 42.2176C93.5891 37.7936 92.1963 33.4209 89.3929 29.9853C86.5894 26.5497 82.585 24.3081 78.1907 23.7146Z" fill="url(#paint0_linear_1166_7555)"/>
<defs>
<linearGradient id="paint0_linear_1166_7555" x1="0.125" y1="43.998" x2="93.3291" y2="43.998" gradientUnits="userSpaceOnUse">
<stop stop-color="#1E3C72"/>
<stop offset="0.01" stop-color="#1E3C72"/>
<stop offset="1" stop-color="#2A5298"/>
</linearGradient>
</defs>
</svg>
