<svg width="20" height="20" viewBox="0 0 20 20" fill="none" xmlns="http://www.w3.org/2000/svg">
<path d="M10.6437 2.30591C10.5469 2.2089 10.432 2.13194 10.3054 2.07942C10.1789 2.02691 10.0432 1.99988 9.9062 1.99988C9.76919 1.99988 9.63352 2.02691 9.50697 2.07942C9.38041 2.13194 9.26547 2.2089 9.1687 2.30591L2.2437 9.23091C2.16645 9.308 2.10516 9.39957 2.06334 9.50039C2.02153 9.6012 2 9.70927 2 9.81841C2 9.92755 2.02153 10.0356 2.06334 10.1364C2.10516 10.2372 2.16645 10.3288 2.2437 10.4059L9.1687 17.3309C9.57704 17.7392 10.2354 17.7392 10.6437 17.3309C11.052 16.9226 11.052 16.2642 10.6437 15.8559L4.61037 9.81424L10.652 3.77257C11.052 3.37257 11.052 2.70591 10.6437 2.30591Z" fill="white"/>
<path d="M17.6437 2.30591C17.5469 2.2089 17.432 2.13194 17.3054 2.07942C17.1789 2.02691 17.0432 1.99988 16.9062 1.99988C16.7692 1.99988 16.6335 2.02691 16.507 2.07942C16.3804 2.13194 16.2655 2.2089 16.1687 2.30591L9.2437 9.23091C9.16645 9.308 9.10516 9.39957 9.06334 9.50039C9.02153 9.6012 9 9.70927 9 9.81841C9 9.92755 9.02153 10.0356 9.06334 10.1364C9.10516 10.2372 9.16645 10.3288 9.2437 10.4059L16.1687 17.3309C16.577 17.7392 17.2354 17.7392 17.6437 17.3309C18.052 16.9226 18.052 16.2642 17.6437 15.8559L11.6104 9.81424L17.652 3.77257C18.052 3.37257 18.052 2.70591 17.6437 2.30591Z" fill="white"/>
</svg>
