<svg width="17" height="14" viewBox="0 0 17 14" fill="none" xmlns="http://www.w3.org/2000/svg">
<path d="M15.104 0.954901C15.2063 0.85045 15.3285 0.767472 15.4634 0.710825C15.5982 0.654178 15.743 0.625 15.8892 0.625C16.0355 0.625 16.1803 0.654178 16.3151 0.710825C16.4499 0.767472 16.5721 0.85045 16.6745 0.954901C17.1035 1.3884 17.1095 2.0889 16.6895 2.5299L7.81997 13.0149C7.71927 13.1255 7.59707 13.2144 7.46084 13.2761C7.32461 13.3378 7.17722 13.3711 7.02768 13.3739C6.87814 13.3767 6.72961 13.349 6.59116 13.2924C6.4527 13.2358 6.32725 13.1516 6.22247 13.0449L0.82547 7.5759C0.617326 7.36363 0.500732 7.07819 0.500732 6.7809C0.500732 6.48361 0.617326 6.19817 0.82547 5.9859C0.927839 5.88145 1.05002 5.79847 1.18485 5.74182C1.31969 5.68518 1.46447 5.656 1.61072 5.656C1.75697 5.656 1.90175 5.68518 2.03659 5.74182C2.17142 5.79847 2.2936 5.88145 2.39597 5.9859L6.97397 10.6254L15.074 0.987901C15.0833 0.976309 15.0933 0.965289 15.104 0.954901Z" fill="#169B00"/>
</svg>
