<svg width="80" height="80" viewBox="0 0 80 80" fill="none" xmlns="http://www.w3.org/2000/svg">
<path d="M40 11.6667C33.3696 11.6667 27.0107 14.3006 22.3223 18.989C17.6339 23.6774 15 30.0363 15 36.6667V37.5C15 38.1631 14.7366 38.7989 14.2678 39.2678C13.7989 39.7366 13.163 40 12.5 40C11.837 40 11.2011 39.7366 10.7322 39.2678C10.2634 38.7989 10 38.1631 10 37.5V36.6667C10 28.7102 13.1607 21.0796 18.7868 15.4535C24.4129 9.82739 32.0435 6.66669 40 6.66669C47.9565 6.66669 55.5871 9.82739 61.2132 15.4535C66.8393 21.0796 70 28.7102 70 36.6667V37.5C70 38.1631 69.7366 38.7989 69.2678 39.2678C68.7989 39.7366 68.163 40 67.5 40C66.837 40 66.2011 39.7366 65.7322 39.2678C65.2634 38.7989 65 38.1631 65 37.5V36.6667C65 30.0363 62.3661 23.6774 57.6777 18.989C52.9893 14.3006 46.6304 11.6667 40 11.6667Z" fill="url(#paint0_linear_1370_46130)"/>
<path d="M40 21.6667C36.0218 21.6667 32.2064 23.247 29.3934 26.0601C26.5804 28.8731 25 32.6884 25 36.6667V37.5C25 38.1631 24.7366 38.799 24.2678 39.2678C23.7989 39.7366 23.163 40 22.5 40C21.837 40 21.2011 39.7366 20.7322 39.2678C20.2634 38.799 20 38.1631 20 37.5V36.6667C20 31.3624 22.1071 26.2753 25.8579 22.5246C29.6086 18.7738 34.6957 16.6667 40 16.6667C45.3043 16.6667 50.3914 18.7738 54.1421 22.5246C57.8929 26.2753 60 31.3624 60 36.6667V37.5C60 38.1631 59.7366 38.799 59.2678 39.2678C58.7989 39.7366 58.163 40 57.5 40C56.837 40 56.2011 39.7366 55.7322 39.2678C55.2634 38.799 55 38.1631 55 37.5V36.6667C55 32.6884 53.4196 28.8731 50.6066 26.0601C47.7936 23.247 43.9782 21.6667 40 21.6667Z" fill="url(#paint1_linear_1370_46130)"/>
<path d="M30 36.6666C30.0002 34.7963 30.5248 32.9635 31.5144 31.3765C32.504 29.7894 33.9188 28.5117 35.5982 27.6884C37.2775 26.8651 39.1541 26.5293 41.0147 26.7191C42.8754 26.9089 44.6455 27.6167 46.1241 28.7621C47.6026 29.9074 48.7303 31.4445 49.3791 33.1987C50.0279 34.9529 50.1717 36.8538 49.7942 38.6856C49.4168 40.5175 48.5332 42.2067 47.2438 43.5615C45.9544 44.9163 44.3109 45.8824 42.5 46.3499V53.3333H60C62.6522 53.3333 65.1957 54.3868 67.0711 56.2622C68.9464 58.1376 70 60.6811 70 63.3333C70 65.9854 68.9464 68.529 67.0711 70.4043C65.1957 72.2797 62.6522 73.3333 60 73.3333H20C17.3478 73.3333 14.8043 72.2797 12.9289 70.4043C11.0536 68.529 10 65.9854 10 63.3333C10 60.6811 11.0536 58.1376 12.9289 56.2622C14.8043 54.3868 17.3478 53.3333 20 53.3333H37.5V46.3499C35.3536 45.7951 33.4523 44.543 32.0947 42.7903C30.7372 41.0376 30.0004 38.8836 30 36.6666Z" fill="url(#paint2_linear_1370_46130)"/>
<defs>
<linearGradient id="paint0_linear_1370_46130" x1="10" y1="23.3334" x2="70" y2="23.3334" gradientUnits="userSpaceOnUse">
<stop stop-color="#1E3C72"/>
<stop offset="0.01" stop-color="#1E3C72"/>
<stop offset="1" stop-color="#2A5298"/>
</linearGradient>
<linearGradient id="paint1_linear_1370_46130" x1="20" y1="28.3334" x2="60" y2="28.3334" gradientUnits="userSpaceOnUse">
<stop stop-color="#1E3C72"/>
<stop offset="0.01" stop-color="#1E3C72"/>
<stop offset="1" stop-color="#2A5298"/>
</linearGradient>
<linearGradient id="paint2_linear_1370_46130" x1="10" y1="50.0004" x2="70" y2="50.0004" gradientUnits="userSpaceOnUse">
<stop stop-color="#1E3C72"/>
<stop offset="0.01" stop-color="#1E3C72"/>
<stop offset="1" stop-color="#2A5298"/>
</linearGradient>
</defs>
</svg>
