<svg width="46" height="46" viewBox="0 0 46 46" fill="none" xmlns="http://www.w3.org/2000/svg">
<path d="M23.8194 5.40229C23.7182 5.28409 23.5926 5.1892 23.4512 5.12414C23.3098 5.05908 23.1561 5.02539 23.0004 5.02539C22.8448 5.02539 22.6911 5.05908 22.5497 5.12414C22.4083 5.1892 22.2827 5.28409 22.1815 5.40229C19.3371 8.72921 10.0625 20.231 10.0625 28.7509C10.0625 36.6904 15.0614 41.6884 23 41.6884C30.9386 41.6884 35.9375 36.6904 35.9375 28.7509C35.9375 20.231 26.6629 8.72921 23.8194 5.40229V5.40229ZM24.4375 37.0165C24.2648 37.0169 24.0946 36.9758 23.9411 36.8967C23.7876 36.8175 23.6554 36.7027 23.5555 36.5618C23.4557 36.4209 23.3911 36.2581 23.3673 36.0871C23.3435 35.9161 23.3611 35.7418 23.4187 35.579C23.4922 35.3666 23.6308 35.1828 23.8149 35.0537C23.999 34.9247 24.219 34.857 24.4438 34.8603C25.8709 34.8572 27.2386 34.2889 28.2477 33.2798C29.2568 32.2707 29.825 30.903 29.8281 29.4759C29.8248 29.2512 29.8925 29.0311 30.0216 28.847C30.1506 28.663 30.3345 28.5243 30.5469 28.4508C30.7097 28.3932 30.8839 28.3756 31.055 28.3994C31.226 28.4233 31.3888 28.4878 31.5297 28.5877C31.6706 28.6875 31.7854 28.8197 31.8645 28.9732C31.9436 29.1267 31.9848 29.297 31.9844 29.4696C31.9822 31.4705 31.1864 33.3889 29.7716 34.8037C28.3567 36.2186 26.4384 37.0144 24.4375 37.0165Z" fill="url(#paint0_linear_489_54065)"/>
<defs>
<linearGradient id="paint0_linear_489_54065" x1="10.0625" y1="23.3569" x2="35.9375" y2="23.3569" gradientUnits="userSpaceOnUse">
<stop stop-color="#1E3C72"/>
<stop offset="0.01" stop-color="#1E3C72"/>
<stop offset="1" stop-color="#2A5298"/>
</linearGradient>
</defs>
</svg>
