<svg width="86" height="28" viewBox="0 0 86 28" fill="none" xmlns="http://www.w3.org/2000/svg">
<g clip-path="url(#clip0_326:35379)">
<path d="M11.4313 0.227346C11.5183 0.257261 11.6173 0.266235 11.7344 0.251278C11.9445 0.227346 12.0885 0.269228 12.2326 0.39786C12.4487 0.586321 12.4757 0.738884 12.3226 0.936319C12.1395 1.17564 12.1155 1.27136 12.1996 1.4329C12.2746 1.57948 12.4127 1.62136 12.7308 1.59743C12.8838 1.58547 13.0639 1.55854 13.1299 1.5376C13.304 1.47777 13.4 1.48675 13.4931 1.56752C13.5651 1.62735 13.5771 1.66324 13.5891 1.83675C13.6011 2.00726 13.5891 2.0641 13.5201 2.21965C13.406 2.47094 13.391 2.70427 13.4721 3.00341C13.5441 3.27265 13.5351 3.34145 13.385 3.65555C13.289 3.85897 13.277 3.96666 13.328 4.17607C13.361 4.29872 13.355 4.31666 13.286 4.42136C13.193 4.56495 13.1629 4.69359 13.205 4.80128C13.25 4.92094 13.319 4.96282 13.4631 4.96581C13.6071 4.96581 13.8772 4.80128 14.2524 4.48418C14.3754 4.37948 14.4595 4.32265 14.4445 4.35555C14.3604 4.51111 13.4451 6.61111 13.4451 6.64401C13.4451 6.67094 13.5711 6.67692 14.0003 6.66196C14.3034 6.65299 14.5645 6.63803 14.5765 6.63205C14.5915 6.62307 14.8556 6.08461 15.1707 5.43247L15.738 4.24786H15.891C16.1101 4.24786 16.3172 4.17607 16.4973 4.04145C16.5843 3.97564 16.6953 3.90085 16.7434 3.87393C16.8664 3.8141 17.2746 3.71837 17.5297 3.69145C17.7848 3.66752 17.8538 3.70341 17.9648 3.92777C18.0789 4.15512 18.1689 4.26282 18.283 4.30769C18.451 4.37649 18.5441 4.45427 18.6701 4.64572C18.7391 4.74743 18.8832 4.92094 18.9942 5.03461L19.1923 5.23803V5.90213C19.1923 6.66196 19.2043 6.70983 19.4384 6.90427C19.5135 6.9641 19.6395 7.10769 19.7175 7.22735C19.8226 7.37991 19.8976 7.45769 19.9816 7.49658C20.0477 7.52649 20.2247 7.67008 20.3748 7.81367C20.6479 8.07094 20.6479 8.07094 20.6479 8.22051C20.6479 8.30128 20.6239 8.42692 20.5969 8.49871C20.5579 8.60341 20.5459 8.74401 20.5429 9.1688C20.5399 9.81196 20.5279 9.84786 20.2427 10.1171C19.9786 10.3654 19.9216 10.3803 19.6485 10.2547C19.4594 10.1679 19.4084 10.156 19.1923 10.159C19.0603 10.162 18.6221 10.165 18.2169 10.1679C17.7007 10.1739 17.4246 10.1889 17.2866 10.2188C16.9594 10.2936 16.5993 10.4132 16.5183 10.4791C16.4763 10.512 16.3862 10.6496 16.3232 10.7842C16.2061 11.0295 16.0681 11.185 15.783 11.4004C15.6629 11.4932 15.5309 11.7415 15.4649 12.0107C15.4108 12.2261 15.4138 12.2261 15.5879 12.7316C15.714 13.1026 15.759 13.1893 15.924 13.4017C16.0981 13.6231 16.1161 13.6859 16.1161 14.0389C16.1161 14.2064 16.1311 14.4038 16.1491 14.4756C16.1641 14.5474 16.1731 14.6132 16.1641 14.6192C16.1551 14.6282 16.0801 14.5235 15.9931 14.3889C15.825 14.1286 15.738 14.0449 15.1257 13.5902C14.9366 13.4496 14.7176 13.2761 14.6395 13.2043C14.5645 13.1325 14.4655 13.0667 14.4234 13.0547C14.3394 13.0338 14.1834 13.0487 14.0963 13.0876C14.0303 13.1145 14.0453 13.0846 14.9607 11.3197C15.3148 10.6376 15.6059 10.0752 15.6059 10.0662C15.6059 10.0573 15.0117 10.0513 14.2854 10.0513C13.5591 10.0513 12.9649 10.0423 12.9649 10.0333C12.9649 10.0244 13.0519 9.82692 13.1629 9.59658C13.271 9.36624 13.355 9.17478 13.349 9.1688C13.343 9.16581 13.1059 9.15684 12.8178 9.15085L12.2956 9.13889L11.9265 9.99145L11.5573 10.844L12.8478 10.853C13.9072 10.859 14.1353 10.8679 14.1353 10.9009C14.1353 10.9756 13.271 13.1444 13.235 13.1564C13.217 13.1624 13.175 13.1444 13.1419 13.1145C13.0759 13.0547 13.0699 12.8962 13.1149 12.5342C13.1599 12.1962 13.1599 11.9299 13.1149 11.8551C13.0129 11.6936 12.6437 11.5919 12.2386 11.6128C12.0285 11.6248 11.9505 11.6457 11.7584 11.7385C11.4313 11.894 11.3832 12.0017 11.4823 12.3427C11.5273 12.4983 11.5243 12.5312 11.4673 12.8782C11.4223 13.1355 11.4043 13.3718 11.4073 13.65C11.4073 14.0867 11.3772 14.2154 11.2032 14.4996C11.1552 14.5773 11.0891 14.7179 11.0621 14.8077C11.0321 14.8974 10.9751 15.0261 10.9361 15.0949C10.855 15.2385 10.687 15.7081 10.5609 16.1538C10.5099 16.3273 10.4139 16.5697 10.3478 16.6923C10.0747 17.2038 9.95468 17.7423 10.0207 18.1491C10.0417 18.2778 10.0717 18.4722 10.0837 18.5829C10.1167 18.8132 10.1768 18.9479 10.2698 18.9987C10.3148 19.0226 10.4409 19.0256 10.687 19.0107C11.1071 18.9867 11.1372 19.0047 11.1942 19.2859C11.3022 19.8303 11.4463 20.1744 11.6714 20.4197C11.8244 20.5872 11.8844 20.7457 11.8844 20.994C11.8844 21.1226 11.9805 21.5355 12.0465 21.688C12.0705 21.7479 12.1606 21.8795 12.2446 21.9872C12.3286 22.0949 12.4187 22.2265 12.4427 22.2863C12.5147 22.4538 12.7968 22.8038 12.9559 22.9145C13.0909 23.0132 13.1149 23.0192 13.325 23.0192C13.4481 23.0162 13.6191 23.0043 13.7032 22.9923C13.9583 22.9504 14.0423 22.9953 14.2674 23.3034C14.4895 23.6085 14.7176 23.8 15.0297 23.9496C15.2218 24.0393 15.2458 24.0603 15.2458 24.135C15.2458 24.2248 15.0777 24.5299 14.9607 24.6466C14.9006 24.7094 14.8496 24.7214 14.5885 24.7423C14.4234 24.7543 14.2164 24.7872 14.1263 24.8171C13.8352 24.9068 13.7332 24.8291 13.6792 24.4761C13.6281 24.138 13.5171 24.0124 13.175 23.9107C12.9859 23.8568 12.4307 23.5906 12.2626 23.4739C12.1185 23.3722 12.0495 23.3722 11.9055 23.4709C11.7584 23.5697 11.7104 23.5517 11.4673 23.3064C11.3592 23.1987 11.2272 23.088 11.1762 23.0611C11.1041 23.0222 11.0741 22.9803 11.0471 22.8697C10.9931 22.6513 10.9091 22.5137 10.702 22.2923C10.5879 22.1726 10.4619 21.9932 10.3869 21.8466C10.2248 21.5355 10.1258 21.4338 9.70258 21.1585C9.40847 20.9671 9.35145 20.9162 9.28842 20.7876C9.2464 20.7068 9.18038 20.6201 9.13836 20.5932C9.02732 20.5214 8.87126 20.5273 8.76021 20.6081C8.63116 20.7038 8.53512 20.6739 8.4631 20.5124C8.38206 20.3359 8.38807 20.1863 8.49611 19.8303C8.54713 19.6598 8.61616 19.3667 8.64617 19.1812C8.7242 18.7295 8.76922 18.6308 8.94028 18.5021C9.05133 18.4214 9.10535 18.3526 9.18338 18.182C9.27642 17.9876 9.28542 17.9367 9.28842 17.6944C9.28842 17.4581 9.30043 17.3983 9.38446 17.2158C9.43548 17.0991 9.4925 16.9256 9.51351 16.8269C9.57053 16.5457 9.62155 16.453 9.84364 16.2286C9.9937 16.0761 10.1107 15.9115 10.2758 15.6244C10.669 14.9333 10.693 14.8436 10.651 14.1526C10.6119 13.5333 10.5789 13.3927 10.3448 12.9081C10.1408 12.4833 10.1498 12.5342 10.1738 11.9209C10.1858 11.6936 10.1768 11.6637 10.0327 11.3047C9.85565 10.856 9.7476 10.6885 9.40847 10.3205C9.06333 9.94957 8.9733 9.8329 8.83224 9.5876C8.63716 9.24957 8.62816 9.19572 8.7182 8.96837C8.77822 8.81581 8.83224 8.74401 8.96429 8.63034C9.15637 8.46282 9.2404 8.30128 9.2434 8.09188C9.2464 7.82265 9.34544 7.53846 9.55853 7.19444C9.68758 6.98803 9.66357 6.8953 9.41447 6.59615C9.2284 6.37478 9.19538 6.29401 9.15637 5.98889C9.11135 5.64487 9.06934 5.57607 8.87126 5.51923C8.66117 5.45641 8.56214 5.37863 8.49011 5.21111C8.45709 5.13632 8.35505 5.00171 8.25301 4.90598C8.15698 4.81324 8.06694 4.69658 8.05494 4.6517C8.04293 4.60384 8.04893 4.48718 8.06994 4.38846C8.10295 4.22393 8.10295 4.20598 8.03093 4.0594C7.98891 3.97264 7.88687 3.82008 7.80284 3.71538C7.65878 3.5329 7.65278 3.52393 7.69779 3.44316C7.7218 3.39529 7.82685 3.27265 7.93189 3.16795L8.12396 2.97649L8.14197 2.57265C8.15397 2.33034 8.15097 2.12692 8.13297 2.06709C8.10896 1.98034 8.11496 1.93547 8.18098 1.79786C8.28303 1.57051 8.39107 1.43589 8.51412 1.38803C8.61316 1.34615 8.62216 1.34914 8.71219 1.42393C8.79323 1.48974 8.82624 1.49871 8.95229 1.48675C9.05133 1.47777 9.14136 1.44487 9.2314 1.37906C9.32143 1.31623 9.39947 1.28632 9.47449 1.28632C9.56453 1.28632 9.60655 1.26239 9.72059 1.14273C9.79562 1.06495 9.90066 0.951277 9.94868 0.888456C10.0327 0.783756 10.0567 0.771791 10.2518 0.741877C10.5519 0.699997 10.681 0.622217 10.777 0.421791C10.861 0.254269 10.9061 0.212389 11.0591 0.179483C11.1582 0.155552 11.2362 0.164526 11.4313 0.227346Z" fill="#FECC00"/>
<path d="M10.9391 0.0448685C10.804 0.0927315 10.654 0.242304 10.654 0.326065C10.654 0.454697 10.3899 0.598286 10.1468 0.598286C10.0057 0.598286 9.90066 0.670082 9.76861 0.85256C9.60355 1.0829 9.53452 1.13675 9.39046 1.13675C9.31543 1.13675 9.2464 1.16367 9.17138 1.2235C9.00631 1.35512 8.90427 1.36709 8.79023 1.27435C8.60715 1.12179 8.34905 1.21153 8.16598 1.49572C7.98591 1.77393 7.93789 1.91453 7.9769 2.07008C7.99791 2.14786 8.00091 2.33931 7.99191 2.54871L7.9739 2.9017L7.76982 3.11111C7.54473 3.34444 7.48171 3.47307 7.53273 3.60171C7.54774 3.64658 7.63477 3.77222 7.7248 3.8829C7.91988 4.12521 7.9619 4.21795 7.92288 4.32564C7.88387 4.42435 7.88387 4.64273 7.92588 4.74743C7.94089 4.7923 8.04293 4.91795 8.14497 5.02564C8.25902 5.13931 8.35205 5.26495 8.37306 5.33077C8.41808 5.47436 8.54713 5.58205 8.74821 5.63889C8.83524 5.66581 8.92228 5.7047 8.94028 5.72564C8.96129 5.74957 8.9883 5.88419 9.00631 6.02777C9.03932 6.32991 9.09635 6.45854 9.32143 6.73376C9.41147 6.84145 9.4835 6.95512 9.4835 6.98205C9.4835 7.00897 9.43548 7.1047 9.37546 7.19145C9.2254 7.4188 9.09334 7.80769 9.09334 8.03504C9.09334 8.18162 9.07834 8.23846 9.00631 8.34914C8.95829 8.42393 8.87126 8.51666 8.81123 8.55256C8.7302 8.60342 8.67618 8.67222 8.61015 8.82179C8.4721 9.12393 8.4691 9.21965 8.59515 9.47692C8.75421 9.80299 8.88926 9.98846 9.21939 10.3444C9.61255 10.7692 9.69658 10.8979 9.87665 11.3376C10.0177 11.6816 10.0297 11.7295 10.0207 11.9209C9.9937 12.5731 9.9907 12.5491 10.1948 12.956C10.2968 13.1594 10.3989 13.4077 10.4259 13.5064C10.4499 13.6051 10.4799 13.9132 10.4919 14.1944C10.5159 14.8077 10.4949 14.9124 10.2428 15.3611C9.94268 15.8936 9.87965 15.9863 9.72659 16.1179C9.52852 16.2855 9.43848 16.441 9.36645 16.7521C9.33044 16.8927 9.25841 17.1201 9.20139 17.2577C9.10835 17.485 9.09935 17.5269 9.11435 17.7214C9.12936 17.9158 9.12336 17.9517 9.03932 18.1132C8.9823 18.2269 8.89527 18.3406 8.79623 18.4214C8.67018 18.5291 8.63416 18.5799 8.58614 18.7355C8.55613 18.8372 8.51412 19.0226 8.49611 19.1483C8.4751 19.2709 8.41508 19.5402 8.35805 19.7436C8.208 20.2761 8.223 20.5273 8.41808 20.7218C8.53813 20.8415 8.70919 20.8564 8.83524 20.7577C8.94028 20.6739 9.03332 20.6949 9.11435 20.8205C9.24941 21.0359 9.31843 21.0987 9.64856 21.3141C10.0417 21.5714 10.1017 21.6372 10.2818 21.9902C10.3598 22.1487 10.4499 22.2803 10.5039 22.3222C10.66 22.4359 10.837 22.6991 10.8851 22.8816C10.9331 23.0671 11.0081 23.1628 11.1642 23.2436C11.2212 23.2735 11.3202 23.3603 11.3862 23.438C11.6053 23.7013 11.7674 23.7491 11.9745 23.6145L12.0945 23.5338L12.1906 23.6085C12.3316 23.7162 12.8538 23.9705 13.0999 24.0513C13.4481 24.165 13.4721 24.1949 13.5351 24.5598C13.5921 24.8859 13.7062 25.0085 13.9523 25.0085C14.0153 25.0085 14.1263 24.9876 14.1954 24.9637C14.2674 24.9397 14.4625 24.9068 14.6305 24.8919C14.8016 24.8769 14.9667 24.85 15.0027 24.832C15.0657 24.7962 15.2548 24.5389 15.3478 24.3564C15.4679 24.1201 15.3928 23.9137 15.1587 23.8389C14.9517 23.7731 14.6125 23.5098 14.4685 23.3064C14.1623 22.8756 14.0513 22.8038 13.7422 22.8338C13.1479 22.8966 13.202 22.8996 13.0639 22.7979C12.8988 22.6782 12.6888 22.412 12.5597 22.1667C12.5057 22.059 12.4247 21.9393 12.3796 21.8974C12.3376 21.8585 12.2746 21.7838 12.2446 21.7329C12.1636 21.6013 12.0675 21.2333 12.0345 20.9192C11.9985 20.5902 11.9715 20.5184 11.8004 20.3329C11.6233 20.1385 11.4403 19.7406 11.3862 19.4325C11.3262 19.0855 11.2932 19.0077 11.1732 18.909L11.0681 18.8222L12.4907 16.0791C13.271 14.5714 13.9313 13.3299 13.9553 13.3209C13.9793 13.315 14.0573 13.282 14.1293 13.2491C14.1984 13.2192 14.2854 13.1923 14.3214 13.1923C14.3544 13.1923 14.4655 13.2641 14.5675 13.3509C14.6695 13.4376 14.8856 13.6081 15.0507 13.7308C15.5189 14.0748 15.72 14.2603 15.894 14.5265C16.0681 14.7927 16.1941 14.8795 16.2842 14.8047C16.3232 14.7718 16.3292 14.7329 16.3142 14.5983C16.3022 14.5085 16.2842 14.2453 16.2722 14.015C16.2602 13.7846 16.2332 13.5662 16.2122 13.5303C16.1911 13.4944 16.1011 13.3658 16.0111 13.2462C15.891 13.0906 15.828 12.9679 15.783 12.8184C15.75 12.7017 15.6869 12.5252 15.6479 12.4205C15.5759 12.235 15.5729 12.2291 15.6209 12.0466C15.702 11.7295 15.792 11.5769 15.9901 11.4333C16.2122 11.2718 16.3172 11.1432 16.4703 10.841C16.5453 10.6944 16.6173 10.5897 16.6593 10.5688C16.6983 10.5509 16.8814 10.491 17.0615 10.4372L17.3916 10.3355L18.2169 10.3235C18.6701 10.3175 19.1233 10.3115 19.2223 10.3115C19.3634 10.3115 19.4444 10.3325 19.5975 10.4043C19.9126 10.5568 20.0327 10.5299 20.3538 10.2248C20.6629 9.93461 20.6929 9.85384 20.6959 9.21367C20.6989 8.79188 20.7079 8.66025 20.7529 8.54059C20.807 8.38803 20.822 8.14273 20.786 8.02906C20.7619 7.95128 20.1827 7.41581 20.0717 7.36795C20.0267 7.34701 19.9516 7.27521 19.9066 7.20641C19.8586 7.1376 19.7235 6.97606 19.6035 6.85042C19.3904 6.62606 19.3844 6.61111 19.3544 6.41367C19.3364 6.29102 19.3304 6.00982 19.3424 5.71965C19.3604 5.25598 19.3574 5.22906 19.2974 5.13034C19.2614 5.07051 19.1833 4.98675 19.1263 4.94487C19.0663 4.9 18.9492 4.76239 18.8622 4.63675C18.6701 4.36752 18.5681 4.26581 18.427 4.20598C18.295 4.15213 18.2139 4.06538 18.1179 3.87393C18.0099 3.65854 17.8898 3.55683 17.7247 3.53889C17.4066 3.50299 16.7254 3.66752 16.5183 3.83205C16.3112 3.99658 16.1551 4.07136 15.9811 4.08931C15.891 4.09829 15.816 4.10128 15.816 4.0923C15.816 4.08632 16.0111 3.67649 16.2482 3.1829L16.6833 2.28846L16.0321 2.27948C15.6779 2.27649 15.3748 2.28247 15.3628 2.29444C15.3508 2.3094 15.1827 2.68034 14.9877 3.12008L14.6365 3.92179L14.3784 4.15512C13.8352 4.64273 13.5561 4.83418 13.4301 4.80427C13.328 4.77735 13.328 4.64273 13.4301 4.49316C13.5141 4.37051 13.5201 4.31068 13.4691 4.06837C13.4361 3.90085 13.4361 3.89188 13.5441 3.67051C13.6942 3.3594 13.7062 3.26367 13.6251 2.96453C13.5471 2.68034 13.5561 2.54871 13.6701 2.27051C13.8112 1.92051 13.7482 1.50171 13.5351 1.39102C13.415 1.3282 13.256 1.3282 13.0939 1.38803C13.0249 1.41196 12.8448 1.43589 12.6978 1.44188C12.4697 1.45085 12.4217 1.44188 12.3676 1.39401C12.2806 1.31623 12.2896 1.25341 12.4067 1.09786C12.5537 0.906406 12.5747 0.855553 12.5747 0.711962C12.5747 0.547432 12.4757 0.373928 12.3106 0.248287C12.1485 0.125637 12.0165 0.0897408 11.7314 0.0897408C11.6053 0.0897408 11.4433 0.0688 11.3742 0.0448685C11.2182 -0.00897789 11.0951 -0.00897789 10.9391 0.0448685ZM11.4313 0.227346C11.5183 0.257261 11.6173 0.266235 11.7344 0.251278C11.9445 0.227346 12.0885 0.269228 12.2326 0.39786C12.4487 0.586321 12.4757 0.738884 12.3226 0.936319C12.1395 1.17564 12.1155 1.27136 12.1996 1.4329C12.2746 1.57948 12.4127 1.62136 12.7308 1.59743C12.8838 1.58547 13.0639 1.55854 13.1299 1.5376C13.304 1.47777 13.4 1.48675 13.4931 1.56752C13.5651 1.62735 13.5771 1.66324 13.5891 1.83675C13.6011 2.00726 13.5891 2.0641 13.5201 2.21965C13.406 2.47094 13.391 2.70427 13.4721 3.00341C13.5441 3.27265 13.5351 3.34145 13.385 3.65555C13.289 3.85897 13.277 3.96666 13.328 4.17607C13.361 4.29872 13.355 4.31666 13.286 4.42136C13.193 4.56495 13.1629 4.69359 13.205 4.80128C13.25 4.92094 13.319 4.96282 13.4631 4.96581C13.6071 4.96581 13.8772 4.80128 14.2524 4.48418C14.3754 4.37948 14.4595 4.32265 14.4445 4.35555C14.3604 4.51111 13.4451 6.61111 13.4451 6.64401C13.4451 6.67094 13.5711 6.67692 14.0003 6.66196C14.3034 6.65299 14.5645 6.63803 14.5765 6.63205C14.5915 6.62307 14.8556 6.08461 15.1707 5.43247L15.738 4.24786H15.891C16.1101 4.24786 16.3172 4.17607 16.4973 4.04145C16.5843 3.97564 16.6953 3.90085 16.7434 3.87393C16.8664 3.8141 17.2746 3.71837 17.5297 3.69145C17.7848 3.66752 17.8538 3.70341 17.9648 3.92777C18.0789 4.15512 18.1689 4.26282 18.283 4.30769C18.451 4.37649 18.5441 4.45427 18.6701 4.64572C18.7391 4.74743 18.8832 4.92094 18.9942 5.03461L19.1923 5.23803V5.90213C19.1923 6.66196 19.2043 6.70983 19.4384 6.90427C19.5135 6.9641 19.6395 7.10769 19.7175 7.22735C19.8226 7.37991 19.8976 7.45769 19.9816 7.49658C20.0477 7.52649 20.2247 7.67008 20.3748 7.81367C20.6479 8.07094 20.6479 8.07094 20.6479 8.22051C20.6479 8.30128 20.6239 8.42692 20.5969 8.49871C20.5579 8.60341 20.5459 8.74401 20.5429 9.1688C20.5399 9.81196 20.5279 9.84786 20.2427 10.1171C19.9786 10.3654 19.9216 10.3803 19.6485 10.2547C19.4594 10.1679 19.4084 10.156 19.1923 10.159C19.0603 10.162 18.6221 10.165 18.2169 10.1679C17.7007 10.1739 17.4246 10.1889 17.2866 10.2188C16.9594 10.2936 16.5993 10.4132 16.5183 10.4791C16.4763 10.512 16.3862 10.6496 16.3232 10.7842C16.2061 11.0295 16.0681 11.185 15.783 11.4004C15.6629 11.4932 15.5309 11.7415 15.4649 12.0107C15.4108 12.2261 15.4138 12.2261 15.5879 12.7316C15.714 13.1026 15.759 13.1893 15.924 13.4017C16.0981 13.6231 16.1161 13.6859 16.1161 14.0389C16.1161 14.2064 16.1311 14.4038 16.1491 14.4756C16.1641 14.5474 16.1731 14.6132 16.1641 14.6192C16.1551 14.6282 16.0801 14.5235 15.9931 14.3889C15.825 14.1286 15.738 14.0449 15.1257 13.5902C14.9366 13.4496 14.7176 13.2761 14.6395 13.2043C14.5645 13.1325 14.4655 13.0667 14.4234 13.0547C14.3394 13.0338 14.1834 13.0487 14.0963 13.0876C14.0303 13.1145 14.0453 13.0846 14.9607 11.3197C15.3148 10.6376 15.6059 10.0752 15.6059 10.0662C15.6059 10.0573 15.0117 10.0513 14.2854 10.0513C13.5591 10.0513 12.9649 10.0423 12.9649 10.0333C12.9649 10.0244 13.0519 9.82692 13.1629 9.59658C13.271 9.36624 13.355 9.17478 13.349 9.1688C13.343 9.16581 13.1059 9.15684 12.8178 9.15085L12.2956 9.13889L11.9265 9.99145L11.5573 10.844L12.8478 10.853C13.9072 10.859 14.1353 10.8679 14.1353 10.9009C14.1353 10.9756 13.271 13.1444 13.235 13.1564C13.217 13.1624 13.175 13.1444 13.1419 13.1145C13.0759 13.0547 13.0699 12.8962 13.1149 12.5342C13.1599 12.1962 13.1599 11.9299 13.1149 11.8551C13.0129 11.6936 12.6437 11.5919 12.2386 11.6128C12.0285 11.6248 11.9505 11.6457 11.7584 11.7385C11.4313 11.894 11.3832 12.0017 11.4823 12.3427C11.5273 12.4983 11.5243 12.5312 11.4673 12.8782C11.4223 13.1355 11.4043 13.3718 11.4073 13.65C11.4073 14.0867 11.3772 14.2154 11.2032 14.4996C11.1552 14.5773 11.0891 14.7179 11.0621 14.8077C11.0321 14.8974 10.9751 15.0261 10.9361 15.0949C10.855 15.2385 10.687 15.7081 10.5609 16.1538C10.5099 16.3273 10.4139 16.5697 10.3478 16.6923C10.0747 17.2038 9.95468 17.7423 10.0207 18.1491C10.0417 18.2778 10.0717 18.4722 10.0837 18.5829C10.1167 18.8132 10.1768 18.9479 10.2698 18.9987C10.3148 19.0226 10.4409 19.0256 10.687 19.0107C11.1071 18.9867 11.1372 19.0047 11.1942 19.2859C11.3022 19.8303 11.4463 20.1744 11.6714 20.4197C11.8244 20.5872 11.8844 20.7457 11.8844 20.994C11.8844 21.1226 11.9805 21.5355 12.0465 21.688C12.0705 21.7479 12.1606 21.8795 12.2446 21.9872C12.3286 22.0949 12.4187 22.2265 12.4427 22.2863C12.5147 22.4538 12.7968 22.8038 12.9559 22.9145C13.0909 23.0132 13.1149 23.0192 13.325 23.0192C13.4481 23.0162 13.6191 23.0043 13.7032 22.9923C13.9583 22.9504 14.0423 22.9953 14.2674 23.3034C14.4895 23.6085 14.7176 23.8 15.0297 23.9496C15.2218 24.0393 15.2458 24.0603 15.2458 24.135C15.2458 24.2248 15.0777 24.5299 14.9607 24.6466C14.9006 24.7094 14.8496 24.7214 14.5885 24.7423C14.4234 24.7543 14.2164 24.7872 14.1263 24.8171C13.8352 24.9068 13.7332 24.8291 13.6792 24.4761C13.6281 24.138 13.5171 24.0124 13.175 23.9107C12.9859 23.8568 12.4307 23.5906 12.2626 23.4739C12.1185 23.3722 12.0495 23.3722 11.9055 23.4709C11.7584 23.5697 11.7104 23.5517 11.4673 23.3064C11.3592 23.1987 11.2272 23.088 11.1762 23.0611C11.1041 23.0222 11.0741 22.9803 11.0471 22.8697C10.9931 22.6513 10.9091 22.5137 10.702 22.2923C10.5879 22.1726 10.4619 21.9932 10.3869 21.8466C10.2248 21.5355 10.1258 21.4338 9.70258 21.1585C9.40847 20.9671 9.35145 20.9162 9.28842 20.7876C9.2464 20.7068 9.18038 20.6201 9.13836 20.5932C9.02732 20.5214 8.87126 20.5273 8.76021 20.6081C8.63116 20.7038 8.53512 20.6739 8.4631 20.5124C8.38206 20.3359 8.38807 20.1863 8.49611 19.8303C8.54713 19.6598 8.61616 19.3667 8.64617 19.1812C8.7242 18.7295 8.76922 18.6308 8.94028 18.5021C9.05133 18.4214 9.10535 18.3526 9.18338 18.182C9.27642 17.9876 9.28542 17.9367 9.28842 17.6944C9.28842 17.4581 9.30043 17.3983 9.38446 17.2158C9.43548 17.0991 9.4925 16.9256 9.51351 16.8269C9.57053 16.5457 9.62155 16.453 9.84364 16.2286C9.9937 16.0761 10.1107 15.9115 10.2758 15.6244C10.669 14.9333 10.693 14.8436 10.651 14.1526C10.6119 13.5333 10.5789 13.3927 10.3448 12.9081C10.1408 12.4833 10.1498 12.5342 10.1738 11.9209C10.1858 11.6936 10.1768 11.6637 10.0327 11.3047C9.85565 10.856 9.7476 10.6885 9.40847 10.3205C9.06333 9.94957 8.9733 9.8329 8.83224 9.5876C8.63716 9.24957 8.62816 9.19572 8.7182 8.96837C8.77822 8.81581 8.83224 8.74401 8.96429 8.63034C9.15637 8.46282 9.2404 8.30128 9.2434 8.09188C9.2464 7.82265 9.34544 7.53846 9.55853 7.19444C9.68758 6.98803 9.66357 6.8953 9.41447 6.59615C9.2284 6.37478 9.19538 6.29401 9.15637 5.98889C9.11135 5.64487 9.06934 5.57607 8.87126 5.51923C8.66117 5.45641 8.56214 5.37863 8.49011 5.21111C8.45709 5.13632 8.35505 5.00171 8.25301 4.90598C8.15698 4.81324 8.06694 4.69658 8.05494 4.6517C8.04293 4.60384 8.04893 4.48718 8.06994 4.38846C8.10295 4.22393 8.10295 4.20598 8.03093 4.0594C7.98891 3.97264 7.88687 3.82008 7.80284 3.71538C7.65878 3.5329 7.65278 3.52393 7.69779 3.44316C7.7218 3.39529 7.82685 3.27265 7.93189 3.16795L8.12396 2.97649L8.14197 2.57265C8.15397 2.33034 8.15097 2.12692 8.13297 2.06709C8.10896 1.98034 8.11496 1.93547 8.18098 1.79786C8.28303 1.57051 8.39107 1.43589 8.51412 1.38803C8.61316 1.34615 8.62216 1.34914 8.71219 1.42393C8.79323 1.48974 8.82624 1.49871 8.95229 1.48675C9.05133 1.47777 9.14136 1.44487 9.2314 1.37906C9.32143 1.31623 9.39947 1.28632 9.47449 1.28632C9.56453 1.28632 9.60655 1.26239 9.72059 1.14273C9.79562 1.06495 9.90066 0.951277 9.94868 0.888456C10.0327 0.783756 10.0567 0.771791 10.2518 0.741877C10.5519 0.699997 10.681 0.622217 10.777 0.421791C10.861 0.254269 10.9061 0.212389 11.0591 0.179483C11.1582 0.155552 11.2362 0.164526 11.4313 0.227346ZM12.8328 11.8491L12.9799 11.9209L12.9769 12.1453C12.9769 12.2679 12.9649 12.5312 12.9529 12.7286C12.9289 13.1355 12.9469 13.2073 13.1059 13.282C13.1599 13.306 13.199 13.3389 13.193 13.3568C13.172 13.4107 11.0681 18.7714 11.0531 18.8073C11.0471 18.8252 10.9961 18.8402 10.9451 18.8402C10.8911 18.8372 10.741 18.8462 10.6089 18.8581C10.3028 18.891 10.2728 18.8641 10.2338 18.5291C10.2188 18.4004 10.1918 18.212 10.1738 18.1162C10.1077 17.7752 10.2248 17.2577 10.4739 16.8C10.5579 16.6415 10.651 16.4111 10.693 16.2556C10.789 15.9056 11.0021 15.2983 11.0711 15.1816C11.1011 15.1338 11.1492 15.0171 11.1792 14.9273C11.2092 14.8376 11.2842 14.6761 11.3472 14.5684C11.5453 14.2333 11.5663 14.1526 11.5603 13.7158C11.5573 13.4376 11.5723 13.2073 11.6203 12.9171C11.6864 12.5132 11.6864 12.5013 11.6323 12.2949C11.6023 12.1812 11.5843 12.0675 11.5933 12.0436C11.6173 11.9838 11.7254 11.915 11.9355 11.8282C12.0885 11.7624 12.1455 11.7564 12.3976 11.7654C12.6287 11.7744 12.7188 11.7923 12.8328 11.8491Z" fill="#0E4194"/>
<path d="M12.4909 16.079L11.0684 18.8222C11.0834 18.7863 13.2142 13.2102 13.2352 13.1564C13.2352 13.1564 14.1356 10.9756 14.1356 10.9008C14.1356 10.8679 13.9075 10.859 12.8481 10.853L11.5576 10.844L11.9267 9.99144L12.2958 9.13887L12.818 9.15084C13.1062 9.15682 13.3433 9.16579 13.3493 9.16878C13.3553 9.17477 13.2712 9.36622 13.1632 9.59656C13.0521 9.8269 12.9651 10.0243 12.9651 10.0333C12.9651 10.0423 13.5593 10.0513 14.2856 10.0513C15.0119 10.0513 15.6061 10.0572 15.6061 10.0662C15.6061 10.0752 15.315 10.6376 14.9609 11.3196L14.0966 13.0876C14.0966 13.0876 13.2712 14.5713 12.4909 16.079Z" fill="#E4022E"/>
<path d="M16.2484 3.18289C16.0113 3.67648 15.8162 4.0863 15.8162 4.09229L15.171 5.43246C14.8559 6.0846 14.5917 6.62306 14.5767 6.63203C14.5647 6.63802 14.3036 6.65297 14.0005 6.66195C13.5713 6.6769 13.4453 6.67092 13.4453 6.644C13.4453 6.61109 14.5527 4.07733 14.6368 3.92177L14.9879 3.12007C15.183 2.68032 15.351 2.30938 15.3631 2.29442C15.3751 2.28246 15.6782 2.27648 16.0323 2.27947L16.6836 2.28844L16.2484 3.18289Z" fill="#E4022E"/>
<path d="M15.18 6.91923L15.036 7.01496V7.7688C15.036 8.33419 15.027 8.52564 15 8.52564C14.982 8.52564 14.9189 8.49573 14.8649 8.45684L14.7659 8.39103V7.79872C14.7659 7.47564 14.7539 7.2094 14.7419 7.2094C14.7269 7.2094 14.6488 7.25727 14.5678 7.3141L14.4207 7.4188L14.4057 7.96325L14.3907 8.51069L14.2647 8.39701C14.1116 8.2594 14.0156 8.06795 14.0156 7.9094C14.0156 7.82265 14.0456 7.74786 14.1356 7.61624C14.2707 7.4188 14.2827 7.35598 14.1957 7.26923C14.1116 7.18547 14.0726 7.19445 13.9406 7.32906C13.8415 7.43077 13.8295 7.4547 13.8655 7.47863C13.8895 7.49359 13.9195 7.50855 13.9315 7.50855C13.9976 7.50855 13.9766 7.64615 13.8805 7.83462C13.7005 8.1906 13.7485 8.39103 14.0756 8.66325L14.1656 8.74103L14.3097 8.64829C14.4748 8.54359 14.5048 8.53761 14.5558 8.59744C14.5738 8.62137 14.6578 8.66325 14.7389 8.69017L14.8859 8.73804L15.117 8.57949L15.3511 8.42094L15.3601 7.61923C15.3631 7.17949 15.3571 6.82051 15.3451 6.8235C15.3301 6.8235 15.2581 6.86838 15.18 6.91923Z" fill="#0E4194"/>
<path d="M11.6024 7.32607L11.4854 7.44573L11.5664 7.46667C11.7194 7.50556 11.7345 7.5624 11.7345 8.1577C11.7345 8.45983 11.7405 8.70513 11.7495 8.70513C11.7585 8.70513 11.8335 8.66026 11.9145 8.60641L12.0646 8.51069V8.02906C12.0646 7.69701 12.0526 7.53846 12.0286 7.51453C12.0016 7.48761 12.0496 7.47864 12.2537 7.47864H12.5148V8.10684V8.73505L12.6798 8.62735L12.8449 8.51667V7.86453V7.2094H12.2807H11.7164L11.6024 7.32607Z" fill="#0E4194"/>
<path d="M17.2806 7.3141L17.1366 7.4188V7.82564V8.23248L17.0315 8.13975C16.9715 8.08889 16.9115 8.04701 16.8965 8.04701C16.8815 8.04701 16.8335 8.11282 16.7884 8.19658C16.7434 8.27735 16.6954 8.34616 16.6804 8.34616C16.6654 8.34616 16.6114 8.25641 16.5604 8.14872C16.4913 8.00214 16.4643 7.89145 16.4523 7.72992C16.4403 7.51453 16.4403 7.50855 16.5063 7.50855C16.5454 7.50855 16.5994 7.52949 16.6264 7.55342C16.6714 7.59231 16.6864 7.58633 16.7734 7.49658C16.8965 7.37094 16.8815 7.3141 16.7164 7.26624C16.6054 7.23333 16.5904 7.23633 16.5243 7.29616C16.4853 7.33504 16.4073 7.44573 16.3533 7.54744C16.2722 7.70299 16.2512 7.7718 16.2422 7.97522C16.2302 8.1906 16.2392 8.23846 16.3113 8.4C16.3563 8.49872 16.4283 8.61539 16.4763 8.66026L16.5604 8.74103L16.6744 8.52863C16.7374 8.41197 16.7975 8.31624 16.8095 8.31624C16.8425 8.31624 17.0105 8.51667 17.0616 8.61539C17.0886 8.66624 17.1216 8.70513 17.1366 8.70513C17.1546 8.70513 17.2356 8.66026 17.3167 8.60641L17.4667 8.51069V7.85855C17.4667 7.50257 17.4577 7.2094 17.4457 7.2094C17.4307 7.2094 17.3587 7.25727 17.2806 7.3141Z" fill="#0E4194"/>
<path d="M59.6333 9.69233V15.765L59.7264 16.7851C59.7744 17.3475 59.8134 17.8321 59.8074 17.865C59.8014 17.8979 58.9341 15.6244 57.8777 12.8094C56.236 8.42993 55.9539 7.70002 55.9239 7.75686C55.9059 7.79276 55.0956 10.0962 54.1232 12.8752C53.1088 15.7769 52.3525 17.8949 52.3465 17.853C52.3405 17.8111 52.3705 17.2936 52.4125 16.7043C52.4845 15.7201 52.4905 15.4658 52.4905 13.7308C52.4905 11.3675 52.4605 11.0026 52.2024 10.2368C51.6862 8.6872 50.5248 7.87951 48.649 7.76284C48.3069 7.73891 47.7547 7.78079 47.3885 7.85558C46.8183 7.97224 46.2001 8.23848 45.7829 8.5466C45.0236 9.10899 44.5554 9.91669 44.3844 10.9487C44.3303 11.2718 44.3394 12.0376 44.3994 12.3996C44.6545 13.9163 45.6419 14.8855 47.2805 15.2325C47.5176 15.2804 47.6977 15.2953 48.1088 15.2983C48.3969 15.3013 48.7121 15.2923 48.8081 15.2774L48.9792 15.2564V19.968V24.6795H51.179H53.3759L54.6814 20.7757C55.3987 18.6308 55.9929 16.8838 56.0049 16.8957C56.0139 16.9077 56.6262 18.6457 57.3675 20.7607C58.1057 22.8757 58.718 24.6227 58.724 24.6406C58.736 24.6705 59.2042 24.6795 60.9269 24.6795H63.1147V14.1496V3.61968H61.374H59.6333V9.69233ZM48.8051 10.2876C49.1502 10.4192 49.4474 10.7154 49.5824 11.0624C49.6634 11.2688 49.6934 11.7026 49.6424 11.9329C49.4924 12.6329 48.8441 13.0577 48.0878 12.953C47.3735 12.8543 46.9024 12.3039 46.9024 11.562C46.9024 10.9039 47.2565 10.4163 47.8627 10.2428C48.0788 10.1799 48.589 10.2069 48.8051 10.2876Z" fill="white"/>
<path d="M35.5337 7.76882C35.1406 7.78677 34.4293 7.87053 34.0632 7.94532C32.7516 8.20557 31.6472 8.69318 30.1916 9.64446C29.3783 10.1739 28.679 10.515 27.9047 10.7543L27.6406 10.8351V12.4116V13.9881L28.466 14.0898L29.2913 14.1915V19.4355V24.6795H31.047H32.8027V18.4034V12.1274L32.2715 12.0227L31.7372 11.918L31.8813 11.8133C32.1544 11.6188 32.7726 11.2838 33.2138 11.0893C33.9191 10.7842 34.4923 10.6017 35.1586 10.4821C35.5698 10.4073 36.5902 10.4043 37.0043 10.4791C37.8477 10.6316 38.3999 10.8829 38.835 11.3077C39.2342 11.6996 39.4383 12.1543 39.4953 12.7765C39.5133 12.9919 39.5253 15.2564 39.5253 18.897V24.6795H41.266H43.0067L42.9977 18.3436L42.9887 12.0107L42.9227 11.7415C42.6946 10.8141 42.3164 10.1381 41.6742 9.49489C40.3807 8.20856 38.3519 7.6372 35.5337 7.76882Z" fill="white"/>
<path d="M69.9722 7.76882C69.7231 7.78976 69.1979 7.90344 68.9308 7.99019C67.3251 8.5107 66.1937 9.81199 65.7255 11.6667C65.5274 12.4445 65.4704 13.0188 65.4944 13.9701C65.5214 15.065 65.6295 15.756 66.1157 17.9637C66.4638 19.5551 66.5358 19.9051 66.6559 20.641C66.7819 21.4248 66.959 23.097 67.031 24.156C67.04 24.3026 67.055 24.4821 67.064 24.5509L67.079 24.6795H68.9938H70.9085L72.148 22.744C72.8293 21.6761 73.4025 20.7906 73.4205 20.7697C73.4445 20.7428 73.7627 21.2094 74.732 22.6992L76.0135 24.6645L78.1024 24.6735L80.1912 24.6795V16.2586V7.83763H78.4355H76.6798L76.6738 14.1287L76.6648 20.4197L75.0442 18.1372C74.1528 16.8838 73.4145 15.8547 73.4055 15.8547C73.3935 15.8547 72.6522 16.8838 71.7579 18.1432C70.8605 19.4026 70.1222 20.4257 70.1132 20.4197C70.1072 20.4107 70.0562 20.1235 69.9992 19.7825C69.8821 19.0526 69.8341 18.8073 69.63 17.9637C69.549 17.6167 69.435 17.0932 69.3749 16.797C69.2639 16.2197 69.0478 14.8975 69.0628 14.8825C69.0688 14.8765 69.1949 14.9064 69.3419 14.9453C69.7771 15.062 70.1492 15.1128 70.6024 15.1128C71.2957 15.1128 71.8449 14.9902 72.4211 14.703C73.4265 14.2004 74.0088 13.4137 74.2699 12.2051C74.3449 11.8492 74.3449 10.9787 74.2699 10.6257C74.1528 10.0902 73.9187 9.55173 73.6396 9.19275C73.4625 8.9654 73.0574 8.57951 72.8593 8.45387C72.037 7.93036 70.9806 7.67908 69.9722 7.76882ZM70.9325 10.2158C71.1306 10.2727 71.4217 10.4581 71.5418 10.6107C72.019 11.212 71.9169 12.1513 71.3287 12.5851C71.0646 12.7765 70.8185 12.8423 70.4103 12.8274C70.1102 12.8184 70.0742 12.8094 69.8611 12.7077C68.9608 12.262 68.8737 10.9487 69.7081 10.3774C70.0262 10.159 70.5004 10.0962 70.9325 10.2158Z" fill="white"/>
<path d="M82.9884 20.9402C82.3342 21.1167 81.851 21.6103 81.6709 22.2863C81.6019 22.5466 81.6049 23.0701 81.6739 23.3333C81.896 24.162 82.5502 24.6885 83.4176 24.7333C84.366 24.7812 85.0983 24.2936 85.3714 23.438C85.6385 22.6094 85.3384 21.6521 84.6721 21.1974C84.348 20.9761 84.0989 20.9043 83.6127 20.8923C83.2795 20.8833 83.1685 20.8893 82.9884 20.9402Z" fill="white"/>
<path d="M23.8079 19.5222C23.8169 19.5551 23.8349 19.6299 23.8469 19.6927C23.8649 19.8004 23.8769 19.8093 24.2971 20.0307C24.5342 20.1534 24.7353 20.267 24.7443 20.285C24.7653 20.3149 24.5102 20.4854 24.4082 20.5093C24.2431 20.5512 24.1501 20.4704 24.081 20.2222C24.06 20.1474 24.042 20.1085 24.042 20.1354C24.036 20.2551 23.7209 20.4046 23.6669 20.3149C23.6278 20.2521 23.6789 20.1623 23.7569 20.1623C23.8409 20.1623 23.8409 20.1683 23.7839 20.0307C23.7599 19.9709 23.7209 19.923 23.6999 19.923C23.6278 19.923 23.5288 20.0157 23.5288 20.0816C23.5288 20.1683 23.6549 20.4346 23.7269 20.4974C23.8229 20.5811 23.952 20.5781 24.036 20.4944C24.093 20.4375 24.096 20.4375 24.114 20.5452C24.138 20.6828 24.1861 20.7487 24.2911 20.7905C24.4142 20.8354 24.5912 20.7726 24.7443 20.629L24.8763 20.5063L24.8283 20.2491C24.7983 20.0846 24.7623 19.9799 24.7323 19.9619C24.7053 19.9469 24.4832 19.8273 24.2371 19.6987C23.898 19.5222 23.7959 19.4803 23.8079 19.5222Z" fill="white"/>
<path d="M1.02018 19.6299C1.02018 19.7346 0.969156 19.7705 0.47396 20.0158C0.227863 20.1384 0.0297852 20.2461 0.0297852 20.2551C0.0297852 20.2671 0.09281 20.3 0.173842 20.3329L0.314898 20.3927L0.714055 20.1953C0.93014 20.0876 1.11021 19.9829 1.11021 19.9619C1.11021 19.941 1.12522 19.923 1.14022 19.923C1.17624 19.923 1.29028 20.1654 1.27228 20.1983C1.26627 20.2072 1.06819 20.3209 0.831101 20.4495C0.236867 20.7726 0.26988 20.7427 0.413937 20.8175C0.482964 20.8534 0.554992 20.8803 0.579002 20.8803C0.633023 20.8803 1.62041 20.3419 1.62041 20.3119C1.62041 20.2431 1.28728 19.594 1.25127 19.594C1.22726 19.594 1.16423 19.585 1.11321 19.576C1.02918 19.5581 1.02018 19.5641 1.02018 19.6299Z" fill="white"/>
<path d="M1.53034 20.5632C1.53034 20.5722 1.57836 20.6529 1.63538 20.7427C1.69241 20.8324 1.74042 20.9192 1.74042 20.9371C1.74042 20.9521 1.53034 21.0957 1.27524 21.2542C1.02014 21.4158 0.810059 21.5534 0.810059 21.5653C0.810059 21.5773 0.873083 21.6072 0.948113 21.6371L1.08917 21.688L1.59337 21.3709C1.87248 21.1974 2.10057 21.0418 2.10057 21.0269C2.10057 21.0119 2.04354 20.9072 1.97452 20.7965C1.90549 20.6859 1.84847 20.5931 1.84847 20.5931C1.83946 20.5812 1.53034 20.5512 1.53034 20.5632Z" fill="white"/>
<path d="M23.0789 20.7368C23.0129 20.8355 22.9588 20.9342 22.9588 20.9521C22.9588 21.0359 23.1089 21.2932 23.2049 21.3769C23.268 21.4338 23.397 21.4966 23.517 21.5325C23.7121 21.5923 23.8592 21.6851 23.8592 21.7479C23.8592 21.7658 23.7752 21.7778 23.6701 21.7778C23.436 21.7778 23.1869 21.6671 23.1119 21.5295C23.0189 21.353 22.9348 21.2902 22.8178 21.3081C22.7577 21.3201 22.7037 21.3321 22.6947 21.341C22.6857 21.35 22.7037 21.4188 22.7307 21.4936C22.7818 21.6252 22.7848 21.6252 22.8568 21.5774C22.9648 21.5086 23.0549 21.5594 23.1599 21.7509C23.2049 21.8376 23.28 21.9333 23.325 21.9692C23.427 22.044 23.7181 22.068 23.8742 22.0171C23.9852 21.9812 23.9852 21.9782 23.9672 21.8586C23.9372 21.6821 23.8022 21.4457 23.6821 21.368C23.6251 21.3291 23.484 21.2722 23.367 21.2363C23.2499 21.2034 23.1449 21.1645 23.1329 21.1526C23.0939 21.1197 23.2589 20.9043 23.307 20.9222C23.343 20.9342 23.7842 21.2154 24.1833 21.4727C24.2493 21.5145 24.2493 21.5145 24.2493 21.356V21.1945L23.7451 20.8714C23.466 20.6949 23.2289 20.5513 23.2199 20.5513C23.2079 20.5513 23.1449 20.635 23.0789 20.7368Z" fill="white"/>
<path d="M2.06164 21.4547C2.12467 21.709 2.04363 22.0291 1.85756 22.2385C1.7135 22.4 1.61446 22.4359 1.53043 22.3611C1.4584 22.2953 1.4554 22.2235 1.51543 22.1068L1.56344 22.0171H1.41338C1.26933 22.0171 1.26633 22.0201 1.24832 22.1188C1.21831 22.2744 1.26633 22.3581 1.40438 22.4C1.58145 22.4538 1.74051 22.4419 1.90558 22.3641C2.08265 22.2833 2.19069 22.1667 2.26872 21.9752C2.30173 21.9004 2.33475 21.8376 2.34375 21.8376C2.35576 21.8376 2.38577 21.8705 2.41278 21.9124C2.4548 21.9752 2.48481 21.9872 2.61086 21.9872C2.69489 21.9872 2.76092 21.9782 2.76092 21.9692C2.76092 21.9603 2.66488 21.8197 2.54783 21.6551L2.33475 21.359H2.18469H2.03463L2.06164 21.4547Z" fill="white"/>
<path d="M21.9773 21.5384C21.9143 21.5623 21.8963 21.6042 21.8723 21.7628C21.8663 21.7957 21.8363 21.8256 21.8033 21.8316C21.7012 21.8525 21.6682 21.9004 21.6682 22.035C21.6682 22.1517 21.6622 22.1636 21.5872 22.1726C21.5092 22.1816 21.5032 22.1935 21.4942 22.3222C21.4851 22.4658 21.5062 22.4957 21.5692 22.4329C21.5932 22.4089 21.6142 22.4209 21.6502 22.4688C21.6952 22.5376 21.6922 22.5435 21.5512 22.6901C21.4731 22.7709 21.3981 22.8636 21.3891 22.8935C21.3651 22.9593 21.4131 23.2196 21.4761 23.3482C21.5392 23.4799 21.6172 23.5277 21.8813 23.5995C22.1394 23.6683 22.2414 23.7371 22.2895 23.8747L22.3255 23.9764V23.8568C22.3285 23.7072 22.2114 23.4529 22.1124 23.3871C22.0734 23.3602 21.9833 23.3213 21.9143 23.3004C21.8303 23.2764 21.7883 23.2465 21.7883 23.2106C21.7883 23.1568 21.8663 23.1119 21.9113 23.1418C21.9263 23.1508 21.9383 23.097 21.9383 23.0222C21.9383 22.8876 21.9173 22.8636 21.8123 22.8816C21.7643 22.8876 21.7913 22.8038 21.8483 22.7499C21.9083 22.6961 21.9173 22.7051 22.3195 23.097L22.7336 23.4978L22.7516 23.4081C22.7997 23.1837 22.8027 23.1867 22.3435 22.7499L21.9053 22.3371L21.8333 22.4059L21.7643 22.4717L21.7432 22.3042C21.7192 22.1158 21.7523 22.047 21.8663 22.047C21.9293 22.047 21.9353 22.035 21.9203 21.9602C21.9053 21.8914 21.9173 21.8555 21.9773 21.7957C22.0224 21.7538 22.0824 21.7179 22.1184 21.7179C22.1694 21.7179 22.1784 21.7358 22.1784 21.8316C22.1784 21.8944 22.1964 21.9662 22.2174 21.9931C22.2354 22.02 22.4545 22.2055 22.7036 22.4029C23.0608 22.6901 23.1718 22.7649 23.2438 22.7649C23.3939 22.7649 23.4389 22.7111 23.4179 22.5615C23.4059 22.4717 23.3909 22.4418 23.3699 22.4628C23.3519 22.4807 23.3159 22.4957 23.2889 22.4957C23.2408 22.4957 22.3885 21.8256 22.2925 21.7119C22.2625 21.679 22.2384 21.6192 22.2384 21.5803C22.2384 21.5175 22.2234 21.5085 22.1424 21.5115C22.0884 21.5115 22.0134 21.5235 21.9773 21.5384ZM21.7162 23.079C21.7162 23.1867 21.7132 23.2735 21.7042 23.2735C21.6592 23.2735 21.4881 23.1717 21.4881 23.1448C21.4881 23.1209 21.6922 22.8846 21.7132 22.8846C21.7132 22.8846 21.7132 22.9713 21.7162 23.079Z" fill="white"/>
<path d="M2.87482 21.706C2.91684 21.7359 2.94085 21.7808 2.94085 21.8406C2.94085 21.9124 2.95285 21.9273 3.01287 21.9273C3.11191 21.9273 3.20495 22.0171 3.21695 22.1218C3.22596 22.2115 3.22596 22.2115 3.0849 22.2026L2.94385 22.1906L2.46066 22.6004C1.98947 23.0013 1.98047 23.0103 1.98047 23.1269C1.98047 23.2526 1.98647 23.2585 2.16354 23.2855C2.26858 23.3034 2.26858 23.3004 2.25658 23.2197C2.24757 23.1419 2.27458 23.109 2.52668 22.8936C3.22296 22.3013 3.21095 22.3102 3.31899 22.3222C3.41203 22.3342 3.42104 22.3282 3.43904 22.2355C3.46605 22.0889 3.40303 21.9632 3.28898 21.9333C3.21695 21.9154 3.19295 21.8914 3.18694 21.8286C3.17494 21.7239 3.0759 21.6581 2.92884 21.6581C2.80879 21.6581 2.80879 21.6581 2.87482 21.706Z" fill="white"/>
<path d="M3.28284 22.8158C3.23482 22.8248 3.22282 22.8457 3.23182 22.8966C3.24983 22.9803 3.20181 23.0192 2.9287 23.1538C2.74863 23.2436 2.70662 23.2795 2.64959 23.3932C2.60157 23.4829 2.58057 23.5786 2.58057 23.6953V23.8628L2.73063 23.8838C2.85367 23.8987 2.88068 23.9137 2.88068 23.9615C2.88068 23.9944 2.90169 24.0752 2.9287 24.141C2.97372 24.2517 2.98573 24.2607 3.09077 24.2607C3.15079 24.2607 3.26183 24.2696 3.33386 24.2786L3.46592 24.2936L3.97612 23.7611L4.48632 23.2286L4.32425 23.2017L4.16219 23.1748L4.04214 23.3064C3.73002 23.6444 3.20781 24.1709 3.1808 24.1709C3.1628 24.1709 3.15079 24.144 3.15079 24.1141C3.15079 24.0812 3.14179 24.0363 3.13278 24.0124C3.12078 23.9825 3.24383 23.8329 3.49293 23.5667C3.89508 23.1419 3.89809 23.1299 3.65499 23.1269C3.55295 23.1239 3.52294 23.1479 3.19881 23.4889L2.85067 23.8568V23.7222C2.85067 23.3932 2.99173 23.1838 3.26784 23.106C3.45091 23.0551 3.54094 22.9773 3.54094 22.8667C3.54094 22.8038 3.52594 22.7949 3.44491 22.7979C3.39089 22.8008 3.31886 22.8098 3.28284 22.8158Z" fill="white"/>
<path d="M20.8882 23.3423C20.8461 23.3782 20.7651 23.447 20.7111 23.4918C20.6271 23.5606 20.609 23.5965 20.609 23.6923C20.609 23.9884 20.7351 24.1918 21.0322 24.3893C21.1523 24.4671 21.2483 24.5987 21.2123 24.6376C21.1823 24.6645 20.9362 24.5867 20.8221 24.5119C20.6841 24.4252 20.57 24.2547 20.546 24.1051C20.522 23.9735 20.435 23.9017 20.2939 23.9017C20.2129 23.9017 20.1949 23.9106 20.2099 23.9495C20.2189 23.9765 20.2279 24.0393 20.2279 24.0931C20.2279 24.1859 20.2339 24.1889 20.3299 24.1769C20.456 24.1619 20.51 24.2307 20.561 24.4701C20.618 24.7363 20.8341 24.8889 21.1523 24.8889C21.2693 24.8889 21.2723 24.8889 21.2903 24.7602C21.3023 24.6884 21.2963 24.5628 21.2783 24.482C21.2243 24.2457 21.1733 24.1859 20.7441 23.8807C20.6991 23.8508 20.7021 23.8359 20.7801 23.7551C20.8311 23.7042 20.8852 23.6624 20.9032 23.6624C20.9242 23.6624 21.1012 23.8568 21.3023 24.0961C21.5004 24.3354 21.6715 24.5179 21.6805 24.503C21.6925 24.488 21.7075 24.4132 21.7165 24.3414L21.7375 24.2038L21.3834 23.776C21.1883 23.5397 21.0142 23.3333 20.9962 23.3124C20.9722 23.2854 20.9452 23.2914 20.8882 23.3423Z" fill="white"/>
<path d="M5.12293 23.4559C5.08091 23.4799 5.07791 23.4978 5.10492 23.5457C5.15294 23.6354 5.11693 23.6923 5.01188 23.6923C4.90984 23.6923 4.90084 23.7102 4.96987 23.8059C5.0419 23.9076 5.17395 23.9615 5.36002 23.9615C5.51308 23.9615 5.53709 23.9525 5.63313 23.8568C5.72016 23.77 5.73517 23.7371 5.71716 23.6683C5.69015 23.5636 5.69916 23.5636 5.5671 23.6205C5.48307 23.6534 5.46206 23.6743 5.48907 23.7012C5.54009 23.7521 5.52809 23.8358 5.46506 23.8717C5.36903 23.9196 5.25798 23.9076 5.19196 23.8358C5.11693 23.7521 5.11392 23.7012 5.19196 23.6773C5.27899 23.6504 5.32101 23.5576 5.28199 23.4829C5.24598 23.417 5.20396 23.4081 5.12293 23.4559Z" fill="white"/>
<path d="M4.45039 23.8449C4.36336 23.8688 4.35436 23.8808 4.36936 23.9585C4.39037 24.0543 4.36036 24.0812 4.08725 24.2367C3.88017 24.3504 3.80514 24.503 3.81715 24.7782L3.82615 24.9637L3.97921 24.9726C4.12327 24.9816 4.13527 24.9876 4.15328 25.0684C4.16228 25.1192 4.19229 25.191 4.2193 25.2329C4.26432 25.3017 4.28533 25.3077 4.51642 25.3077H4.76252L5.2187 24.7064L5.67488 24.1081L5.50081 24.1171L5.32674 24.1261L4.93359 24.6436C4.4624 25.2628 4.47741 25.2449 4.44139 25.188C4.36636 25.0714 4.41138 24.9786 4.7295 24.5568C4.90357 24.3265 5.03863 24.129 5.02962 24.1201C5.02062 24.1111 4.94259 24.1141 4.85555 24.1231L4.69649 24.144L4.41138 24.5299C4.25532 24.7393 4.11726 24.9068 4.10526 24.8978C4.06024 24.8709 4.08125 24.5449 4.13827 24.4222C4.2103 24.2667 4.29433 24.1889 4.43539 24.147C4.59445 24.0991 4.69349 23.9884 4.66948 23.8897C4.64847 23.806 4.60946 23.8 4.45039 23.8449Z" fill="white"/>
<path d="M19.8225 24.2367C19.7354 24.5179 19.7144 24.4551 20.0476 24.9158C20.3477 25.3316 20.4107 25.3974 20.5188 25.3974C20.6088 25.3974 20.6448 25.3555 20.6658 25.2269C20.6838 25.1102 20.6808 25.1072 20.6088 25.1192C20.5428 25.1312 20.5007 25.0863 20.1976 24.6675C20.0146 24.4102 19.8555 24.2008 19.8495 24.2008C19.8405 24.2008 19.8315 24.2188 19.8225 24.2367Z" fill="white"/>
<path d="M5.73192 24.6137C5.70791 24.6226 5.63888 24.6466 5.58186 24.6705L5.47682 24.7124L5.66589 24.8321C5.78294 24.9068 5.85196 24.9697 5.84296 24.9936C5.83396 25.0145 5.70491 25.2299 5.55485 25.4722C5.40479 25.7145 5.28174 25.918 5.28174 25.9239C5.28174 25.9449 5.50383 25.9329 5.55785 25.912C5.60587 25.891 6.21211 24.9427 6.21211 24.8889C6.21211 24.847 5.77994 24.5987 5.73192 24.6137Z" fill="white"/>
<path d="M19.4986 24.7303C19.4836 24.7812 19.4566 24.841 19.4326 24.859C19.3695 24.9128 19.2585 24.8829 19.2195 24.8021C19.1865 24.7363 19.1805 24.7423 19.1504 24.8889C19.1324 24.9726 19.1234 25.0564 19.1324 25.0684C19.1414 25.0833 19.1955 25.1043 19.2525 25.1162C19.4506 25.1521 19.5586 25.0055 19.5316 24.7363L19.5226 24.6346L19.4986 24.7303Z" fill="white"/>
<path d="M7.20851 24.7602C7.16649 24.7692 7.10947 24.829 7.05244 24.9277C6.9444 25.1162 6.9414 25.1342 7.03744 25.1132C7.07945 25.1042 7.14248 25.0923 7.1815 25.0833C7.22651 25.0743 7.27453 25.0175 7.33155 24.9038L7.41259 24.7393L7.34356 24.7423C7.30755 24.7453 7.24752 24.7542 7.20851 24.7602Z" fill="white"/>
<path d="M18.532 24.9965C18.3669 25.0863 18.2228 25.17 18.2108 25.182C18.2018 25.1939 18.1838 25.2627 18.1718 25.3375L18.1538 25.4722H18.3729C18.559 25.4722 18.616 25.4871 18.751 25.5619C19.0452 25.7234 19.2102 25.9687 19.1022 26.0854C19.0332 26.1602 18.9371 26.1602 18.8381 26.0854L18.763 26.0256L18.742 26.1632C18.733 26.238 18.73 26.3068 18.736 26.3157C18.7721 26.3486 18.9581 26.3726 19.0181 26.3516C19.1532 26.3038 19.2252 25.8969 19.1382 25.6875C19.0752 25.541 18.9461 25.4033 18.7841 25.3106L18.637 25.2298L18.742 25.179C18.8231 25.1401 18.8471 25.1102 18.8471 25.0474C18.8471 24.9995 18.8561 24.9337 18.8651 24.8948C18.8771 24.8589 18.8711 24.829 18.8591 24.832C18.8441 24.832 18.697 24.9068 18.532 24.9965Z" fill="white"/>
<path d="M17.6801 25.1521L17.611 25.2957L17.8691 25.891C18.0102 26.2171 18.1272 26.5013 18.1272 26.5252C18.1272 26.585 17.9322 26.5731 17.8001 26.5072C17.7401 26.4743 17.644 26.4055 17.587 26.3547C17.488 26.2619 17.488 26.2619 17.506 26.0496C17.527 25.8072 17.488 25.6995 17.3619 25.6427C17.2599 25.5948 17.2659 25.5948 17.2449 25.6876C17.2329 25.7354 17.2179 25.7923 17.2089 25.8192C17.1999 25.8551 17.2239 25.879 17.2839 25.9C17.3949 25.9389 17.4219 26.0286 17.3949 26.253C17.3589 26.5551 17.557 26.7735 17.9051 26.8213L18.0612 26.8393L18.2143 26.6119L18.3703 26.3846L18.0822 25.7175C17.9231 25.3525 17.7851 25.0444 17.7701 25.0295C17.7581 25.0175 17.7161 25.0713 17.6801 25.1521Z" fill="white"/>
<path d="M7.35856 25.1641L7.19649 25.194L6.9474 25.7055C6.75532 26.1034 6.6953 26.2051 6.67729 26.1602C6.66829 26.1273 6.64428 26.0705 6.62927 26.0316L6.60226 25.9628L6.47321 26.0705L6.34716 26.1782L6.33816 26.0107C6.32915 25.8222 6.42219 25.4901 6.50322 25.4243C6.54224 25.3914 6.55724 25.3944 6.60526 25.4513C6.65628 25.5171 6.66528 25.5171 6.76432 25.4752C6.88437 25.4273 6.89638 25.3854 6.82435 25.2837C6.75832 25.191 6.6953 25.2 6.50322 25.3376C6.31715 25.4692 6.17309 25.6547 6.10707 25.8491C6.05605 25.9897 6.04704 26.3726 6.09206 26.3995C6.11007 26.4085 6.1911 26.3607 6.27213 26.2919C6.35616 26.223 6.43119 26.1752 6.4432 26.1872C6.4552 26.1991 6.47021 26.3008 6.47621 26.4175C6.48221 26.5312 6.49422 26.6239 6.50022 26.6239C6.50322 26.6239 6.57825 26.6089 6.66228 26.591L6.81534 26.5581L7.17248 25.8431C7.37056 25.4513 7.52962 25.1312 7.52662 25.1312C7.52062 25.1342 7.44559 25.1491 7.35856 25.1641Z" fill="white"/>
<path d="M19.9635 25.3585C19.9605 25.4273 19.9364 25.5051 19.9094 25.529C19.8374 25.6038 19.7264 25.5889 19.6783 25.4991C19.6393 25.4243 19.6363 25.4273 19.6063 25.5919C19.5763 25.7594 19.5793 25.7624 19.6513 25.7893C19.7684 25.8342 19.8704 25.8102 19.9334 25.7235C19.9785 25.6637 19.9875 25.6098 19.9785 25.4393C19.9725 25.3256 19.9665 25.2897 19.9635 25.3585Z" fill="white"/>
<path d="M15.6507 25.559C15.5727 25.6607 15.5727 25.6697 15.6087 25.8312C15.6297 25.9239 15.6567 26.0047 15.6687 26.0137C15.6807 26.0197 15.7257 25.9808 15.7708 25.9239C15.8488 25.8222 15.8488 25.8192 15.8038 25.6517C15.7798 25.559 15.7527 25.4752 15.7467 25.4662C15.7377 25.4603 15.6957 25.5021 15.6507 25.559Z" fill="white"/>
<path d="M7.57192 25.6846C7.49989 25.7265 7.44287 25.7624 7.44287 25.7684C7.44287 25.7743 7.53891 25.8132 7.65295 25.8581C7.81802 25.9239 7.86304 25.9538 7.84803 25.9927C7.84203 26.0196 7.74599 26.256 7.64095 26.5192C7.53591 26.7825 7.45788 27.0008 7.46988 27.0068C7.47889 27.0098 7.54791 26.9949 7.62294 26.9739L7.75499 26.935L7.97408 26.3996C8.09113 26.1034 8.19017 25.8461 8.19317 25.8282C8.19317 25.8013 8.00709 25.7175 7.74299 25.6218C7.71898 25.6128 7.64095 25.6427 7.57192 25.6846Z" fill="white"/>
<path d="M11.2212 25.903C11.1491 25.9478 11.0501 26.0286 11.0021 26.0795L10.915 26.1752L11.0471 26.235C11.2212 26.3128 11.2662 26.3098 11.3682 26.2111C11.4132 26.1662 11.4372 26.1393 11.4222 26.1512C11.3622 26.1961 11.2602 26.1752 11.1791 26.0974C11.0741 26.0017 11.1101 25.9598 11.2932 25.9598C11.4553 25.9598 11.6383 26.0465 11.7464 26.1782L11.8274 26.2739L11.9144 26.1901C12.0015 26.1094 12.0015 26.1034 11.9505 26.0465C11.9234 26.0136 11.8334 25.9508 11.7494 25.903C11.5513 25.7893 11.3982 25.7893 11.2212 25.903Z" fill="white"/>
<path d="M16.5663 25.9837C16.4943 26.1512 16.4943 26.1542 16.5603 26.1333C16.6503 26.1034 16.7043 26.1782 16.7884 26.4294C16.8304 26.5611 16.8664 26.6777 16.8664 26.6897C16.8664 26.7017 16.8094 26.6777 16.7404 26.6388C16.5153 26.5192 16.4643 26.5192 16.4072 26.6418C16.3592 26.7405 16.3592 26.7465 16.4102 26.7645C16.6053 26.8303 16.7374 26.9081 16.8754 27.0397C16.9654 27.1235 17.0465 27.1923 17.0555 27.1923C17.0645 27.1923 17.1095 27.1324 17.1515 27.0576L17.2326 26.923L17.0645 26.4205C16.9204 25.9897 16.8814 25.9089 16.8184 25.879C16.6773 25.8162 16.6293 25.8371 16.5663 25.9837Z" fill="white"/>
<path d="M8.57999 26.0555C8.52297 26.0854 8.42393 26.1662 8.3609 26.235C8.23785 26.3726 8.23785 26.4324 8.3639 26.5671L8.43593 26.6448L8.3579 26.6658C8.23185 26.6987 8.13281 26.8154 8.13281 26.932C8.13281 27.0577 8.26486 27.2461 8.41192 27.3389L8.51696 27.4017L8.76906 27.3119L9.02116 27.2192L9.17422 26.7047C9.25826 26.4235 9.32428 26.1842 9.31828 26.1782C9.30928 26.1722 9.24025 26.1931 9.16522 26.229L9.02416 26.2889L8.88311 26.7555C8.80508 27.0128 8.73305 27.2312 8.72705 27.2371C8.70304 27.2611 8.57699 27.1564 8.48995 27.0337C8.3639 26.8602 8.37291 26.7645 8.52897 26.6538C8.59499 26.606 8.67303 26.5641 8.70004 26.5641C8.73005 26.5641 8.71204 26.5431 8.65802 26.5102C8.53797 26.4354 8.49596 26.3816 8.47495 26.2709C8.44794 26.1363 8.53797 26.1064 8.63101 26.2141C8.70004 26.2918 8.70004 26.2948 8.79007 26.241C8.90112 26.1812 8.90112 26.1752 8.82008 26.0735C8.74805 25.9807 8.72405 25.9807 8.57999 26.0555Z" fill="white"/>
<path d="M15.7951 26.25C15.717 26.3397 15.627 26.3457 15.543 26.2619C15.51 26.229 15.4769 26.2051 15.4709 26.2111C15.4679 26.2141 15.4349 26.2769 15.3989 26.3457C15.3359 26.4713 15.3359 26.4743 15.3929 26.5072C15.4439 26.5401 15.4439 26.5521 15.4079 26.6418C15.3419 26.8034 15.3569 26.9021 15.4709 27.0517C15.579 27.1953 15.633 27.3508 15.585 27.3807C15.546 27.4047 15.3269 27.294 15.2459 27.2072C15.1558 27.1115 15.1228 26.929 15.1738 26.7824C15.2308 26.6239 15.2248 26.4923 15.1618 26.4354C15.0808 26.3606 15.0538 26.3726 14.9787 26.5042C14.9247 26.603 14.9187 26.6239 14.9577 26.6239C14.9847 26.6239 15.0268 26.6568 15.0538 26.6987C15.1018 26.7705 15.1018 26.7884 15.0508 26.9679C15.0238 27.0756 15.0088 27.1953 15.0178 27.2371C15.0448 27.3478 15.2248 27.5333 15.3689 27.5961L15.4919 27.653L15.549 27.5782C15.633 27.4735 15.726 27.2072 15.726 27.0786C15.726 27.0008 15.696 26.92 15.627 26.8183C15.57 26.7346 15.519 26.6448 15.507 26.6149C15.4769 26.5371 15.564 26.5162 15.681 26.573C15.7771 26.6179 15.7831 26.6299 15.8761 27.0337C15.9301 27.2611 15.9811 27.4615 15.9931 27.4824C16.0051 27.5034 16.0472 27.4765 16.1102 27.4017L16.2092 27.285L16.1192 26.9021C16.0382 26.5491 16.0232 26.5132 15.9271 26.4294C15.8431 26.3547 15.8281 26.3277 15.8521 26.2859C15.9001 26.1961 15.8641 26.1752 15.7951 26.25Z" fill="white"/>
<path d="M9.71172 26.4744C9.45662 26.7586 9.36958 27.2162 9.50764 27.5333C9.54365 27.6081 9.57666 27.6709 9.58267 27.6709C9.58867 27.6709 9.64569 27.5962 9.70571 27.5064C9.76574 27.4167 9.82576 27.3419 9.83777 27.3419C9.87678 27.3419 9.95781 27.5004 9.97882 27.6201C9.99083 27.6799 10.0118 27.7308 10.0268 27.7308C10.0418 27.7308 10.1109 27.7009 10.1859 27.665L10.318 27.6021L10.426 27.0427C10.486 26.7376 10.534 26.4684 10.534 26.4504C10.534 26.4265 10.483 26.4385 10.39 26.4863L10.2459 26.5581L10.1919 26.8662C10.1619 27.0368 10.1259 27.2013 10.1139 27.2342C10.0959 27.288 10.0869 27.285 10.0358 27.1983C10.0058 27.1445 9.96982 27.1026 9.95781 27.1026C9.94881 27.1026 9.90079 27.1564 9.85277 27.2222C9.80775 27.288 9.75974 27.3419 9.74773 27.3419C9.6697 27.3449 9.63969 26.6359 9.71472 26.5611C9.75373 26.5222 9.84377 26.5581 9.84377 26.612C9.84377 26.6748 9.88579 26.6628 9.97282 26.5701C10.0719 26.4684 10.0749 26.4325 9.98783 26.3727C9.88579 26.3009 9.86178 26.3128 9.71172 26.4744Z" fill="white"/>
<path d="M14.4356 26.5133L14.3306 26.6389L14.3966 27.1325C14.4326 27.4047 14.4626 27.644 14.4626 27.665C14.4656 27.7128 14.6577 27.8056 14.7117 27.7846C14.7327 27.7757 14.7747 27.7248 14.8048 27.6739C14.8498 27.5992 14.8498 27.5812 14.8168 27.5812C14.7327 27.5812 14.7087 27.5004 14.6457 26.9979C14.6097 26.7167 14.5707 26.4654 14.5617 26.4385C14.5437 26.3966 14.5226 26.4116 14.4356 26.5133Z" fill="white"/>
<path d="M10.8853 26.594L10.8013 26.7136H10.9663C11.0594 26.7136 11.1344 26.7256 11.1344 26.7376C11.1344 26.7525 11.0924 26.8004 11.0414 26.8512C10.9063 26.9769 10.8043 27.2072 10.8043 27.3867C10.8043 27.5363 10.9093 27.8205 10.9843 27.8653C11.0054 27.8773 11.0654 27.8414 11.1344 27.7756L11.2514 27.6619L11.1794 27.6051C11.0684 27.5183 11.0023 27.3119 11.0264 27.1205C11.0474 26.938 11.0684 26.8632 11.1044 26.8632C11.1284 26.8632 11.3445 27.282 11.3445 27.3299C11.3445 27.3448 11.3865 27.4884 11.4345 27.65L11.5276 27.9371L11.6746 27.8474C11.7586 27.7965 11.8247 27.7457 11.8247 27.7367C11.8247 27.7247 11.8457 27.5004 11.8697 27.2371C11.8937 26.9739 11.9147 26.7106 11.9147 26.6508V26.5431L11.5336 26.5072C10.9723 26.4564 10.9843 26.4564 10.8853 26.594ZM11.6386 26.7854C11.6416 26.7914 11.6356 26.9081 11.6206 27.0457L11.5966 27.297L11.4705 27.0307C11.4015 26.8841 11.3445 26.7585 11.3445 26.7495C11.3445 26.7376 11.6206 26.7705 11.6386 26.7854Z" fill="white"/>
<path d="M13.8231 26.591L13.7061 26.7077L13.7721 27.2282C13.8321 27.6978 13.8471 27.7517 13.9131 27.8145C14.0152 27.9042 14.0902 27.8983 14.1652 27.7876C14.2013 27.7397 14.2283 27.6948 14.2223 27.6919C14.0902 27.6231 14.0932 27.632 14.0242 27.0995C13.9882 26.8124 13.9522 26.5551 13.9492 26.5252C13.9431 26.4803 13.9191 26.4923 13.8231 26.591Z" fill="white"/>
<path d="M12.5717 26.6299C12.2985 26.8393 12.2355 27.1325 12.4246 27.3269L12.5206 27.4256L12.4516 27.5184C12.3526 27.65 12.3646 27.7816 12.4786 27.8863C12.6017 27.994 12.6347 27.991 12.7187 27.8654C12.7967 27.7427 12.7997 27.7307 12.7427 27.7307C12.6797 27.7307 12.5747 27.5842 12.5747 27.5004C12.5747 27.4496 12.6227 27.3807 12.7247 27.285C12.8928 27.1265 12.9228 27.0038 12.8148 26.9081C12.7577 26.8572 12.7547 26.8572 12.6977 26.926C12.6257 27.0128 12.6197 27.0607 12.6797 27.0846C12.7037 27.0936 12.7247 27.1295 12.7247 27.1624C12.7247 27.2162 12.7157 27.2192 12.6647 27.1923C12.5657 27.1384 12.4456 26.935 12.4666 26.8572C12.5026 26.7137 12.5326 26.6987 12.6197 26.7705C12.7187 26.8453 12.8057 26.8513 12.8988 26.7854C12.9978 26.7166 13.0729 26.7555 13.0969 26.8872C13.1059 26.947 13.1149 27.2102 13.1149 27.4675C13.1149 27.7278 13.1239 27.9401 13.1389 27.9401C13.1509 27.9372 13.2139 27.8923 13.2769 27.8354L13.394 27.7307L13.373 27.2162C13.349 26.6748 13.337 26.6359 13.1959 26.5581C13.1509 26.5342 13.1209 26.5461 13.0548 26.609C12.9558 26.7017 12.8388 26.6957 12.7847 26.594C12.7427 26.5132 12.7217 26.5192 12.5717 26.6299Z" fill="white"/>
</g>
<defs>
<clipPath id="clip0_326:35379">
<rect width="85.4737" height="28" fill="white"/>
</clipPath>
</defs>
</svg>
