<svg width="12" height="16" viewBox="0 0 12 16" fill="none" xmlns="http://www.w3.org/2000/svg">
<path d="M11.1929 0.983081L11.1929 0.983592L11.1119 0.976391L11.1008 0.975407V0.9759H1.20106H1.20083V1.1009C1.08838 1.10069 0.979924 1.1426 0.896824 1.21836C0.813725 1.29412 0.762002 1.39825 0.751842 1.51024C0.741681 1.62223 0.773819 1.73397 0.841927 1.82345L11.1929 0.983081ZM11.1929 0.983081L11.2041 0.985101C11.3455 1.0107 11.4722 1.08831 11.5592 1.20264C11.6462 1.31698 11.6873 1.45975 11.6743 1.60286C11.6613 1.74596 11.5952 1.87901 11.489 1.97581C11.3829 2.07262 11.2443 2.12616 11.1006 2.1259L11.1929 0.983081ZM5.57233 4.74404L2.50507 7.80794L2.50545 7.80832L2.49648 7.81575L2.43348 7.86795L2.43377 7.8683L2.42504 7.87436C2.30687 7.95646 2.16221 7.99126 2.01962 7.97189C1.87704 7.95253 1.74689 7.88041 1.65489 7.76978C1.56288 7.65914 1.5157 7.51803 1.52267 7.3743C1.52962 7.23068 1.59014 7.09489 1.69227 6.99369C1.69234 6.99361 1.69242 6.99354 1.69249 6.99346L5.6981 2.99235C5.75099 2.92603 5.81793 2.87221 5.89413 2.83479C5.97287 2.79612 6.05941 2.77598 6.14712 2.7759L6.14712 2.77534L6.15897 2.77645L6.25437 2.78545L6.25443 2.78482L6.26685 2.78727C6.37807 2.80923 6.48027 2.86374 6.56048 2.94387L6.5606 2.94399L10.6034 6.99399L10.6038 6.99361L10.6112 7.00255L10.6634 7.06555L10.6637 7.06524L10.67 7.07424C10.7465 7.185 10.7817 7.3191 10.7696 7.45317C10.7574 7.58725 10.6985 7.7128 10.6033 7.80794L10.6036 7.80832L10.5947 7.81575L10.5317 7.86795L10.532 7.86833L10.5228 7.87464C10.412 7.95103 10.2778 7.98608 10.1437 7.97368C10.0097 7.96128 9.88423 7.90226 9.78924 7.80689C9.78921 7.80686 9.78917 7.80682 9.78914 7.80679L6.72233 4.73746L6.72583 15.05L6.72633 15.05L6.72534 15.0611L6.71814 15.1421L6.71867 15.1421L6.71659 15.1535C6.69236 15.2859 6.62247 15.4056 6.51909 15.4917C6.41571 15.5779 6.28539 15.625 6.15083 15.625L5.57233 4.74404ZM5.57233 4.74404L5.57583 15.0489C5.57583 15.0489 5.57583 15.049 5.57583 15.0491C5.57571 15.1246 5.59047 15.1994 5.61927 15.2692C5.6481 15.3391 5.69043 15.4027 5.74384 15.4562C5.79724 15.5097 5.86068 15.5522 5.93052 15.5811C6.00034 15.6101 6.07519 15.625 6.15079 15.625L5.57233 4.74404Z" fill="black" stroke="black" stroke-width="0.25"/>
</svg>
