<svg width="32" height="32" viewBox="0 0 32 32" fill="none" xmlns="http://www.w3.org/2000/svg">
<path d="M26.144 0.107862H5.9002C2.72163 0.103647 0.111231 2.67759 0.106572 5.85696V26.1002C0.102579 29.2798 2.67681 31.8903 5.85583 31.8945H26.0998C29.2791 31.8985 31.8883 29.3248 31.8932 26.1448V5.90133C31.8977 2.72174 29.3239 0.112299 26.144 0.107862Z" fill="#00B900"/>
<path d="M27.5214 14.6035C27.5214 9.42501 22.3298 5.21202 15.9481 5.21202C9.56717 5.21202 4.375 9.42501 4.375 14.6035C4.375 19.246 8.49226 23.134 14.0538 23.8692C14.4308 23.9504 14.9437 24.1177 15.0735 24.4398C15.1902 24.7324 15.1498 25.1908 15.1108 25.4863C15.1108 25.4863 14.975 26.3029 14.9457 26.4769C14.8953 26.7695 14.7132 27.6212 15.9481 27.1007C17.1834 26.5802 22.6132 23.1763 25.0412 20.3817H25.0407C26.718 18.5425 27.5214 16.6761 27.5214 14.6035Z" fill="white"/>
<path d="M13.5967 12.1011H12.785C12.6605 12.1011 12.5593 12.2021 12.5593 12.3261V17.3688C12.5593 17.493 12.6605 17.5938 12.785 17.5938H13.5967C13.7212 17.5938 13.8222 17.493 13.8222 17.3688V12.3261C13.8222 12.2021 13.7212 12.1011 13.5967 12.1011Z" fill="#00B900"/>
<path d="M19.1842 12.1011H18.3724C18.2479 12.1011 18.147 12.2021 18.147 12.3261V15.322L15.8361 12.2012C15.8308 12.1932 15.8248 12.1856 15.8186 12.1783L15.817 12.177C15.8126 12.1719 15.8081 12.1674 15.8035 12.163C15.8021 12.1617 15.8008 12.1606 15.7993 12.1592C15.7955 12.1557 15.7915 12.1524 15.7873 12.1493C15.7855 12.1475 15.7835 12.1461 15.7815 12.1446C15.7775 12.1419 15.7737 12.139 15.7698 12.1366C15.7675 12.1351 15.7653 12.1337 15.7629 12.1326C15.7589 12.1302 15.7549 12.1277 15.7509 12.1257C15.7485 12.1246 15.7462 12.1233 15.7438 12.1224C15.7396 12.1204 15.7354 12.1184 15.7309 12.1169C15.7283 12.116 15.726 12.1151 15.7236 12.1142C15.7192 12.1126 15.7147 12.1111 15.7101 12.11C15.7076 12.1091 15.705 12.1087 15.7023 12.1078C15.6979 12.1069 15.6937 12.1058 15.6894 12.1049C15.6863 12.1044 15.683 12.104 15.6799 12.1038C15.6759 12.1029 15.6719 12.1027 15.6679 12.1022C15.6641 12.1018 15.6604 12.1018 15.6564 12.1016C15.6535 12.1016 15.6513 12.1011 15.6484 12.1011H14.8368C14.7124 12.1011 14.6112 12.2021 14.6112 12.3261V17.3688C14.6112 17.493 14.7124 17.5938 14.8368 17.5938H15.6484C15.7731 17.5938 15.874 17.493 15.874 17.3688V14.3738L18.1878 17.4986C18.2038 17.5212 18.2235 17.5396 18.245 17.5543C18.2457 17.5547 18.2466 17.5554 18.2473 17.556C18.2519 17.5589 18.2566 17.5618 18.2612 17.5645C18.2635 17.5658 18.2654 17.5667 18.2677 17.5678C18.271 17.5698 18.2748 17.5716 18.2783 17.5731C18.2821 17.5747 18.2854 17.5762 18.2894 17.5778C18.2916 17.5787 18.2938 17.5796 18.2961 17.5802C18.3014 17.5822 18.3063 17.5838 18.3114 17.5853C18.3125 17.5853 18.3136 17.5858 18.3147 17.586C18.3331 17.5909 18.3524 17.5938 18.3724 17.5938H19.1842C19.3089 17.5938 19.4096 17.493 19.4096 17.3688V12.3261C19.4096 12.2021 19.3089 12.1011 19.1842 12.1011Z" fill="#00B900"/>
<path d="M11.6401 16.331H9.43435V12.3263C9.43435 12.2018 9.33341 12.1009 9.20917 12.1009H8.39716C8.2727 12.1009 8.17175 12.2018 8.17175 12.3263V17.3681V17.3686C8.17175 17.4291 8.19594 17.4839 8.23476 17.5243C8.23565 17.5254 8.23654 17.5265 8.23787 17.5276C8.23898 17.5287 8.24009 17.5296 8.24119 17.5307C8.2818 17.5698 8.33637 17.5938 8.39694 17.5938H8.39716H11.6401C11.7645 17.5938 11.865 17.4926 11.865 17.3681V16.5564C11.865 16.4319 11.7645 16.331 11.6401 16.331Z" fill="#00B900"/>
<path d="M23.6672 13.3637C23.7916 13.3637 23.8921 13.263 23.8921 13.1383V12.3265C23.8921 12.2021 23.7916 12.1009 23.6672 12.1009H20.4243H20.4238C20.363 12.1009 20.3082 12.1253 20.2676 12.1646C20.2667 12.1655 20.2656 12.1661 20.265 12.167C20.2636 12.1683 20.2625 12.1697 20.2614 12.171C20.2228 12.2114 20.1989 12.266 20.1989 12.3263V12.3265V17.3683V17.3686C20.1989 17.4291 20.223 17.4839 20.2619 17.5243C20.2627 17.5254 20.2639 17.5268 20.265 17.5276C20.2659 17.5287 20.2672 17.5299 20.2683 17.5307C20.3087 17.5696 20.3635 17.5938 20.4238 17.5938H20.4243H23.6672C23.7916 17.5938 23.8921 17.4926 23.8921 17.3683V16.5564C23.8921 16.4321 23.7916 16.331 23.6672 16.331H21.4617V15.4786H23.6672C23.7916 15.4786 23.8921 15.3777 23.8921 15.2532V14.4414C23.8921 14.317 23.7916 14.2158 23.6672 14.2158H21.4617V13.3637H23.6672Z" fill="#00B900"/>
</svg>
