<svg width="91" height="75" viewBox="0 0 91 75" fill="none" xmlns="http://www.w3.org/2000/svg">
<path d="M9.21476 19.7843C17.9498 12.2843 24.8498 6.35435 43.5748 16.9344C52.5698 22.0143 59.8248 23.9343 65.8598 23.9243C76.4348 23.9243 83.2898 18.0443 89.2148 12.9593C90.2318 12.0746 90.8642 10.8286 90.9781 9.48549C91.092 8.14235 90.6783 6.80766 89.8248 5.76435C89.4084 5.25239 88.8936 4.82913 88.3108 4.51961C87.7281 4.21008 87.0891 4.02058 86.4318 3.96231C85.7745 3.90403 85.1122 3.97818 84.4841 4.18035C83.8559 4.38252 83.2747 4.70862 82.7748 5.13935C74.0448 12.6493 67.1398 18.5793 48.4148 7.98935C23.6748 -5.97565 12.0848 3.97435 2.77476 11.9743C1.75852 12.8598 1.127 14.1061 1.01406 15.4492C0.901127 16.7923 1.31565 18.1267 2.16976 19.1693C2.58638 19.6804 3.10128 20.1027 3.684 20.4113C4.26672 20.7199 4.90542 20.9084 5.56229 20.9657C6.21916 21.0231 6.88087 20.9481 7.50824 20.7451C8.13561 20.5422 8.7159 20.2155 9.21476 19.7843ZM82.7748 30.6743C74.0448 38.1743 67.1398 44.1143 48.4148 33.5243C23.6748 19.5493 12.0848 29.5043 2.77476 37.4993C1.75852 38.3848 1.127 39.6311 1.01406 40.9742C0.901127 42.3173 1.31565 43.6517 2.16976 44.6943C2.58566 45.2062 3.10001 45.6293 3.68237 45.9388C4.26473 46.2482 4.90326 46.4377 5.56015 46.496C6.21705 46.5543 6.87896 46.4802 7.50671 46.278C8.13445 46.0759 8.71526 45.7499 9.21476 45.3193C17.9498 37.8143 24.8498 31.8843 43.5748 42.4593C52.5698 47.5493 59.8248 49.4593 65.8598 49.4593C76.4348 49.4593 83.2898 43.5793 89.2148 38.4843C90.2325 37.6012 90.8657 36.3559 90.9796 35.0132C91.0935 33.6705 90.6792 32.3363 89.8248 31.2943C89.4085 30.7822 88.8936 30.3588 88.3106 30.0493C87.7276 29.7398 87.0884 29.5506 86.4309 29.4928C85.7735 29.4349 85.111 29.5097 84.483 29.7127C83.855 29.9157 83.2741 30.2427 82.7748 30.6743ZM82.7748 56.2043C74.0448 63.7143 67.1398 69.6443 48.4148 59.0643C23.6748 45.0893 12.0848 55.0393 2.77476 63.0393C1.75852 63.9248 1.127 65.1711 1.01406 66.5142C0.901127 67.8573 1.31565 69.1917 2.16976 70.2343C2.58597 70.746 3.10071 71.1689 3.68344 71.4778C4.26617 71.7868 4.90503 71.9755 5.5621 72.0329C6.21917 72.0903 6.88107 72.0151 7.50852 71.8117C8.13598 71.6084 8.7162 71.2812 9.21476 70.8493C17.9498 63.3493 24.8498 57.4243 43.5748 67.9993C52.5698 73.0793 59.8248 74.9993 65.8598 74.9993C76.4348 74.9993 83.2898 69.1093 89.2148 64.0243C90.2318 63.1396 90.8642 61.8936 90.9781 60.5505C91.092 59.2073 90.6783 57.8727 89.8248 56.8293C89.408 56.318 88.8931 55.8953 88.3103 55.5861C87.7275 55.277 87.0887 55.0877 86.4316 55.0295C85.7745 54.9712 85.1124 55.0452 84.4843 55.2469C83.8563 55.4487 83.275 55.7743 82.7748 56.2043Z" fill="url(#paint0_linear_1830_15551)"/>
<defs>
<linearGradient id="paint0_linear_1830_15551" x1="0.995819" y1="37.9987" x2="90.9981" y2="37.9987" gradientUnits="userSpaceOnUse">
<stop stop-color="#1E3C72"/>
<stop offset="0.01" stop-color="#1E3C72"/>
<stop offset="1" stop-color="#2A5298"/>
</linearGradient>
</defs>
</svg>
