<svg width="46" height="92" viewBox="0 0 46 92" fill="none" xmlns="http://www.w3.org/2000/svg">
<path d="M25.9727 58.6696V42.9446C25.9727 42.1342 25.6508 41.357 25.0778 40.784C24.5047 40.2109 23.7275 39.889 22.9171 39.889C22.1067 39.889 21.3295 40.2109 20.7565 40.784C20.1834 41.357 19.8615 42.1342 19.8615 42.9446V58.6696C17.3997 59.4035 15.2843 60.9991 13.9022 63.1645C12.5201 65.3299 11.9636 67.9204 12.3345 70.4624C12.7054 73.0044 13.9788 75.3279 15.922 77.0082C17.8652 78.6884 20.3482 79.6131 22.9171 79.6131C25.486 79.6131 27.9691 78.6884 29.9122 77.0082C31.8554 75.3279 33.1289 73.0044 33.4997 70.4624C33.8706 67.9204 33.3141 65.3299 31.932 63.1645C30.5499 60.9991 28.4345 59.4035 25.9727 58.6696ZM38.1952 51.8342V15.4441C38.1952 11.3921 36.5855 7.50605 33.7203 4.64086C30.8552 1.77566 26.9691 0.166016 22.9171 0.166016C18.8651 0.166016 14.9791 1.77566 12.1139 4.64086C9.24869 7.50605 7.63904 11.3921 7.63904 15.4441V51.8342C4.17963 54.9284 1.74125 59 0.64656 63.5104C-0.44813 68.0207 -0.14753 72.7571 1.50858 77.0929C3.1647 81.4287 6.09826 85.1594 9.92109 87.7914C13.7439 90.4234 18.2758 91.8327 22.9171 91.8327C27.5584 91.8327 32.0903 90.4234 35.9131 87.7914C39.736 85.1594 42.6695 81.4287 44.3256 77.0929C45.9818 72.7571 46.2824 68.0207 45.1877 63.5104C44.093 59 41.6546 54.9284 38.1952 51.8342ZM22.9171 85.7232C19.4313 85.7233 16.0318 84.6394 13.1893 82.6218C10.3468 80.6042 8.20195 77.7527 7.05183 74.4621C5.90171 71.1716 5.80322 67.6048 6.77 64.2558C7.73677 60.9067 9.72097 57.9412 12.4478 55.7698C12.85 55.4879 13.1784 55.1133 13.4051 54.6776C13.6318 54.2419 13.7502 53.758 13.7503 53.2669V15.4441C13.7503 13.0129 14.7161 10.6813 16.4352 8.96215C18.1543 7.24304 20.4859 6.27725 22.9171 6.27725C25.3483 6.27725 27.6799 7.24304 29.3991 8.96215C31.1182 10.6813 32.084 13.0129 32.084 15.4441V53.2669C32.084 53.7515 32.1995 54.2292 32.4208 54.6604C32.6421 55.0916 32.9629 55.4639 33.3566 55.7465C36.0908 57.9138 38.0826 60.8782 39.0559 64.2287C40.0292 67.5791 39.9356 71.1494 38.7882 74.4442C37.6407 77.7391 35.4963 80.5951 32.6524 82.6162C29.8085 84.6373 26.406 85.7232 22.9171 85.7232Z" fill="url(#paint0_linear_1830_15601)"/>
<defs>
<linearGradient id="paint0_linear_1830_15601" x1="0" y1="45.9993" x2="45.8342" y2="45.9993" gradientUnits="userSpaceOnUse">
<stop stop-color="#1E3C72"/>
<stop offset="0.01" stop-color="#1E3C72"/>
<stop offset="1" stop-color="#2A5298"/>
</linearGradient>
</defs>
</svg>
